<?xml version="1.0" encoding="UTF-8"?>
<!DOCTYPE svg PUBLIC "-//W3C//DTD SVG 1.1//EN" "http://www.w3.org/Graphics/SVG/1.1/DTD/svg11.dtd">
<svg xmlns="http://www.w3.org/2000/svg" version="1.1" width="200px" height="200px" style="shape-rendering:geometricPrecision; text-rendering:geometricPrecision; image-rendering:optimizeQuality; fill-rule:evenodd; clip-rule:evenodd" xmlns:xlink="http://www.w3.org/1999/xlink">
<g><path style="opacity:0.999" fill="#48d5ac" d="M 92.5,-0.5 C 98.5,-0.5 104.5,-0.5 110.5,-0.5C 112.833,0.166667 115.167,0.833333 117.5,1.5C 115.265,1.20528 113.265,1.53862 111.5,2.5C 110.448,2.35055 109.448,2.51722 108.5,3C 138,32.5 167.5,62 197,91.5C 197.333,92.8333 197.667,94.1667 198,95.5C 198.21,93.9419 198.71,92.6085 199.5,91.5C 199.5,97.5 199.5,103.5 199.5,109.5C 187.892,99.4097 176.392,88.4097 165,76.5C 164.841,78.3427 164.341,79.0093 163.5,78.5C 164.34,61.673 156.34,53.3397 139.5,53.5C 139.062,53.5654 138.728,53.3988 138.5,53C 139.167,52.6667 139.833,52.3333 140.5,52C 123.805,34.971 106.805,18.3044 89.5,2C 90.5707,1.14825 91.5707,0.314913 92.5,-0.5 Z"/></g>
<g><path style="opacity:1" fill="#3d9295" d="M 7.5,0.5 C 10.5235,0.517477 13.1901,1.51748 15.5,3.5C 43.5144,31.6808 71.3477,60.0142 99,88.5C 100.371,86.9586 101.871,85.6253 103.5,84.5C 103.5,84.8333 103.5,85.1667 103.5,85.5C 102.167,87.5 100.5,89.1667 98.5,90.5C 98.5654,90.0618 98.3988,89.7284 98,89.5C 97,90.5 96,91.5 95,92.5C 64.5586,61.5513 34.0586,31.5513 3.5,2.5C 4.51369,1.32627 5.84702,0.659599 7.5,0.5 Z"/></g>
<g><path style="opacity:0.999" fill="#46caa8" d="M 89.5,-0.5 C 90.5,-0.5 91.5,-0.5 92.5,-0.5C 91.5707,0.314913 90.5707,1.14825 89.5,2C 106.805,18.3044 123.805,34.971 140.5,52C 139.833,52.3333 139.167,52.6667 138.5,53C 138.728,53.3988 139.062,53.5654 139.5,53.5C 137.574,54.4861 135.574,55.4861 133.5,56.5C 133.752,54.7477 132.919,53.081 131,51.5C 114.86,35.694 98.6934,19.8607 82.5,4C 81.1667,3.66667 79.8333,3.33333 78.5,3C 81.1909,2.84421 83.5242,2.01088 85.5,0.5C 87.099,0.767809 88.4324,0.434475 89.5,-0.5 Z"/></g>
<g><path style="opacity:1" fill="#45c2a6" d="M 85.5,0.5 C 83.5242,2.01088 81.1909,2.84421 78.5,3C 79.8333,3.33333 81.1667,3.66667 82.5,4C 98.6934,19.8607 114.86,35.694 131,51.5C 132.919,53.081 133.752,54.7477 133.5,56.5C 131.192,58.4707 128.858,60.4707 126.5,62.5C 106.544,43.2102 87.2102,23.8769 68.5,4.5C 74.0342,2.70009 79.7009,1.36676 85.5,0.5 Z"/></g>
<g><path style="opacity:1" fill="#49ddaf" d="M 111.5,2.5 C 112.873,2.34332 114.207,2.50999 115.5,3C 143.028,30.1946 170.195,57.6946 197,85.5C 197.232,84.2625 197.732,83.2625 198.5,82.5C 198.263,83.791 198.596,84.791 199.5,85.5C 199.5,87.5 199.5,89.5 199.5,91.5C 198.71,92.6085 198.21,93.9419 198,95.5C 197.667,94.1667 197.333,92.8333 197,91.5C 167.5,62 138,32.5 108.5,3C 109.448,2.51722 110.448,2.35055 111.5,2.5 Z"/></g>
<g><path style="opacity:0.998" fill="#4ae3b1" d="M 111.5,2.5 C 113.265,1.53862 115.265,1.20528 117.5,1.5C 122.888,1.76202 127.888,3.09536 132.5,5.5C 131.244,5.46141 130.244,5.96141 129.5,7C 152.134,30.1526 174.467,51.9859 196.5,72.5C 197.167,75.8333 197.833,79.1667 198.5,82.5C 197.732,83.2625 197.232,84.2625 197,85.5C 170.195,57.6946 143.028,30.1946 115.5,3C 114.207,2.50999 112.873,2.34332 111.5,2.5 Z"/></g>
<g><path style="opacity:1" fill="#3c8c93" d="M 3.5,2.5 C 34.0586,31.5513 64.5586,61.5513 95,92.5C 96,91.5 97,90.5 98,89.5C 98.3988,89.7284 98.5654,90.0618 98.5,90.5C 96.5,93.1667 94.1667,95.5 91.5,97.5C 91.5,96.8333 91.1667,96.5 90.5,96.5C 61.1877,67.1877 31.8543,37.8543 2.5,8.5C 1.67504,7.61432 0.675044,7.28099 -0.5,7.5C -0.5,7.16667 -0.5,6.83333 -0.5,6.5C 0.472504,4.86076 1.80584,3.52743 3.5,2.5 Z"/></g>
<g><path style="opacity:1" fill="#3e9998" d="M 7.5,0.5 C 7.5,0.166667 7.5,-0.166667 7.5,-0.5C 9.83333,-0.5 12.1667,-0.5 14.5,-0.5C 23.7277,5.06033 32.3943,11.3937 40.5,18.5C 59.7793,39.4523 80.1127,60.1189 101.5,80.5C 102.63,81.6223 103.297,82.9557 103.5,84.5C 101.871,85.6253 100.371,86.9586 99,88.5C 71.3477,60.0142 43.5144,31.6808 15.5,3.5C 13.1901,1.51748 10.5235,0.517477 7.5,0.5 Z"/></g>
<g><path style="opacity:1" fill="#4bebb3" d="M 132.5,5.5 C 164.695,17.3632 186.028,39.6966 196.5,72.5C 174.467,51.9859 152.134,30.1526 129.5,7C 130.244,5.96141 131.244,5.46141 132.5,5.5 Z"/></g>
<g><path style="opacity:1" fill="#43b8a2" d="M 68.5,4.5 C 87.2102,23.8769 106.544,43.2102 126.5,62.5C 124.5,65.1667 122.167,67.5 119.5,69.5C 119.5,69.1667 119.5,68.8333 119.5,68.5C 120.303,67.5768 120.47,66.5768 120,65.5C 100.833,46.3333 81.6667,27.1667 62.5,8C 63.056,7.61742 63.3893,7.11742 63.5,6.5C 64.9303,5.46253 66.597,4.79586 68.5,4.5 Z"/></g>
<g><path style="opacity:1" fill="#3b8691" d="M -0.5,7.5 C 0.675044,7.28099 1.67504,7.61432 2.5,8.5C 31.8543,37.8543 61.1877,67.1877 90.5,96.5C 89.2073,98.2959 87.7073,99.9625 86,101.5C 58.3476,72.6809 30.181,44.3476 1.5,16.5C 0.831285,14.3691 0.164619,12.3691 -0.5,10.5C -0.5,9.5 -0.5,8.5 -0.5,7.5 Z"/></g>
<g><path style="opacity:0.997" fill="#42b1a0" d="M 63.5,6.5 C 63.3893,7.11742 63.056,7.61742 62.5,8C 81.6667,27.1667 100.833,46.3333 120,65.5C 120.47,66.5768 120.303,67.5768 119.5,68.5C 118.5,69.1667 117.5,69.8333 116.5,70.5C 95.1457,51.1457 74.8123,30.8123 55.5,9.5C 58.1618,8.50143 60.8284,7.50143 63.5,6.5 Z"/></g>
<g><path style="opacity:1" fill="#41ab9e" d="M 55.5,9.5 C 74.8123,30.8123 95.1457,51.1457 116.5,70.5C 115.207,72.2959 113.707,73.9625 112,75.5C 91.2717,54.6045 70.4383,33.9379 49.5,13.5C 51.4632,12.1798 53.4632,10.8465 55.5,9.5 Z"/></g>
<g><path style="opacity:1" fill="#40a49b" d="M 49.5,13.5 C 70.4383,33.9379 91.2717,54.6045 112,75.5C 113.707,73.9625 115.207,72.2959 116.5,70.5C 117.5,69.8333 118.5,69.1667 119.5,68.5C 119.5,68.8333 119.5,69.1667 119.5,69.5C 116.5,73.1667 113.167,76.5 109.5,79.5C 108.671,78.6676 107.838,79.001 107,80.5C 86.2781,58.9461 65.4448,37.6128 44.5,16.5C 45.8993,15.1103 47.5659,14.1103 49.5,13.5 Z"/></g>
<g><path style="opacity:1" fill="#3f9e9a" d="M 44.5,16.5 C 65.4448,37.6128 86.2781,58.9461 107,80.5C 107.838,79.001 108.671,78.6676 109.5,79.5C 107.833,81.8333 105.833,83.8333 103.5,85.5C 103.5,85.1667 103.5,84.8333 103.5,84.5C 103.297,82.9557 102.63,81.6223 101.5,80.5C 80.1127,60.1189 59.7793,39.4523 40.5,18.5C 41.8333,17.8333 43.1667,17.1667 44.5,16.5 Z"/></g>
<g><path style="opacity:1" fill="#3a7e8f" d="M -0.5,10.5 C 0.164619,12.3691 0.831285,14.3691 1.5,16.5C 30.181,44.3476 58.3476,72.6809 86,101.5C 87.7073,99.9625 89.2073,98.2959 90.5,96.5C 91.1667,96.5 91.5,96.8333 91.5,97.5C 89.8729,99.6298 88.0396,101.63 86,103.5C 78.5723,95.567 70.739,88.2336 62.5,81.5C 62.9382,81.5654 63.2716,81.3988 63.5,81C 60.3522,79.3953 57.0189,78.3953 53.5,78C 36,60.5 18.5,43 1,25.5C 0.813823,22.9644 0.313823,20.631 -0.5,18.5C -0.5,15.8333 -0.5,13.1667 -0.5,10.5 Z"/></g>
<g><path style="opacity:1" fill="#38758c" d="M -0.5,18.5 C 0.313823,20.631 0.813823,22.9644 1,25.5C 18.5,43 36,60.5 53.5,78C 57.0189,78.3953 60.3522,79.3953 63.5,81C 63.2716,81.3988 62.9382,81.5654 62.5,81.5C 59.2139,80.7929 55.8806,80.4595 52.5,80.5C 52.0831,79.8761 51.4164,79.5427 50.5,79.5C 47.8312,80.687 45.1645,81.5203 42.5,82C 28.986,68.3192 15.3194,54.8192 1.5,41.5C 0.830151,39.7086 0.163485,38.0419 -0.5,36.5C -0.5,30.5 -0.5,24.5 -0.5,18.5 Z"/></g>
<g><path style="opacity:1" fill="#376d89" d="M -0.5,36.5 C 0.163485,38.0419 0.830151,39.7086 1.5,41.5C 15.3194,54.8192 28.986,68.3192 42.5,82C 45.1645,81.5203 47.8312,80.687 50.5,79.5C 51.4164,79.5427 52.0831,79.8761 52.5,80.5C 49.122,81.0231 46.122,82.3565 43.5,84.5C 43.1034,83.475 42.4368,83.3083 41.5,84C 40.3333,85.1667 39.1667,86.3333 38,87.5C 26.3486,74.6818 14.182,62.3485 1.5,50.5C 0.831949,48.0312 0.165283,45.6979 -0.5,43.5C -0.5,41.1667 -0.5,38.8333 -0.5,36.5 Z"/></g>
<g><path style="opacity:1" fill="#fdfefe" d="M 139.5,53.5 C 156.34,53.3397 164.34,61.673 163.5,78.5C 161.847,81.1305 160.181,83.7972 158.5,86.5C 155.5,88.8333 152.833,91.5 150.5,94.5C 147.833,96.5 145.5,98.8333 143.5,101.5C 139.167,105.167 135.167,109.167 131.5,113.5C 129.833,114.5 128.5,115.833 127.5,117.5C 125.833,118.5 124.5,119.833 123.5,121.5C 120.833,123.5 118.5,125.833 116.5,128.5C 115.5,128.833 114.833,129.5 114.5,130.5C 110.833,133.5 107.5,136.833 104.5,140.5C 102.5,141.833 100.833,143.5 99.5,145.5C 97.4632,146.846 95.4632,148.18 93.5,149.5C 86.7964,151.391 80.4631,150.558 74.5,147C 63,135.5 51.5,124 40,112.5C 36.57,107.372 35.07,101.705 35.5,95.5C 37.3638,91.2949 40.0304,87.6283 43.5,84.5C 46.122,82.3565 49.122,81.0231 52.5,80.5C 55.8806,80.4595 59.2139,80.7929 62.5,81.5C 70.739,88.2336 78.5723,95.567 86,103.5C 88.0396,101.63 89.8729,99.6298 91.5,97.5C 94.1667,95.5 96.5,93.1667 98.5,90.5C 100.5,89.1667 102.167,87.5 103.5,85.5C 105.833,83.8333 107.833,81.8333 109.5,79.5C 113.167,76.5 116.5,73.1667 119.5,69.5C 122.167,67.5 124.5,65.1667 126.5,62.5C 128.858,60.4707 131.192,58.4707 133.5,56.5C 135.574,55.4861 137.574,54.4861 139.5,53.5 Z"/></g>
<g><path style="opacity:1" fill="#356285" d="M -0.5,43.5 C 0.165283,45.6979 0.831949,48.0312 1.5,50.5C 14.182,62.3485 26.3486,74.6818 38,87.5C 39.1667,86.3333 40.3333,85.1667 41.5,84C 42.4368,83.3083 43.1034,83.475 43.5,84.5C 40.0304,87.6283 37.3638,91.2949 35.5,95.5C 35.5654,95.0618 35.3988,94.7284 35,94.5C 34.7104,96.0441 34.0437,97.3774 33,98.5C 23.3333,87.5 13,77.1667 2,67.5C 1.66667,67.8333 1.33333,68.1667 1,68.5C 0.809116,66.2922 0.309116,64.2922 -0.5,62.5C -0.5,56.1667 -0.5,49.8333 -0.5,43.5 Z"/></g>
<g><path style="opacity:0.997" fill="#335580" d="M -0.5,62.5 C 0.309116,64.2922 0.809116,66.2922 1,68.5C 1.33333,68.1667 1.66667,67.8333 2,67.5C 13,77.1667 23.3333,87.5 33,98.5C 34.0437,97.3774 34.7104,96.0441 35,94.5C 35.3988,94.7284 35.5654,95.0618 35.5,95.5C 35.07,101.705 36.57,107.372 40,112.5C 51.5,124 63,135.5 74.5,147C 80.4631,150.558 86.7964,151.391 93.5,149.5C 92.4363,151.049 90.4363,152.215 87.5,153C 102.857,167.555 117.191,181.388 130.5,194.5C 125.503,196.749 120.17,198.083 114.5,198.5C 77.3059,159.804 39.4725,121.471 1,83.5C 0.76791,82.2625 0.26791,81.2625 -0.5,80.5C -0.5,74.5 -0.5,68.5 -0.5,62.5 Z"/></g>
<g><path style="opacity:1" fill="#324d7e" d="M -0.5,80.5 C 0.26791,81.2625 0.76791,82.2625 1,83.5C 39.4725,121.471 77.3059,159.804 114.5,198.5C 113.508,198.328 112.842,198.662 112.5,199.5C 112.167,199.5 111.833,199.5 111.5,199.5C 110.048,198.698 108.382,198.198 106.5,198C 70.6048,162.272 34.9381,126.438 -0.5,90.5C -0.5,87.1667 -0.5,83.8333 -0.5,80.5 Z"/></g>
<g><path style="opacity:1" fill="#46c6a7" d="M 199.5,109.5 C 199.5,110.833 199.5,112.167 199.5,113.5C 198.508,117.407 197.508,121.407 196.5,125.5C 182.461,113.137 169.794,100.137 158.5,86.5C 160.181,83.7972 161.847,81.1305 163.5,78.5C 164.341,79.0093 164.841,78.3427 165,76.5C 176.392,88.4097 187.892,99.4097 199.5,109.5 Z"/></g>
<g><path style="opacity:1" fill="#31487c" d="M -0.5,90.5 C 34.9381,126.438 70.6048,162.272 106.5,198C 108.382,198.198 110.048,198.698 111.5,199.5C 108.5,199.5 105.5,199.5 102.5,199.5C 101.103,197.621 99.4365,195.954 97.5,194.5C 96.6143,193.675 96.281,192.675 96.5,191.5C 87.2829,184.791 78.7829,177.124 71,168.5C 70.5172,167.552 70.3505,166.552 70.5,165.5C 65.7789,163.032 61.6122,159.698 58,155.5C 57.5172,154.552 57.3505,153.552 57.5,152.5C 55.567,152.271 53.9003,151.438 52.5,150C 34.9652,132.298 17.2986,114.798 -0.5,97.5C -0.5,95.1667 -0.5,92.8333 -0.5,90.5 Z"/></g>
<g><path style="opacity:1" fill="#44baa3" d="M 158.5,86.5 C 169.794,100.137 182.461,113.137 196.5,125.5C 195.696,128.579 194.696,131.579 193.5,134.5C 192.262,135.412 190.928,135.579 189.5,135C 175.88,121.884 162.88,108.384 150.5,94.5C 152.833,91.5 155.5,88.8333 158.5,86.5 Z"/></g>
<g><path style="opacity:1" fill="#42af9f" d="M 150.5,94.5 C 162.88,108.384 175.88,121.884 189.5,135C 190.928,135.579 192.262,135.412 193.5,134.5C 191.868,140.43 189.202,145.764 185.5,150.5C 171.917,135.241 157.25,120.241 141.5,105.5C 142.313,104.186 143.313,103.019 144.5,102C 144.272,101.601 143.938,101.435 143.5,101.5C 145.5,98.8333 147.833,96.5 150.5,94.5 Z"/></g>
<g><path style="opacity:0.992" fill="#30427a" d="M -0.5,97.5 C 17.2986,114.798 34.9652,132.298 52.5,150C 53.9003,151.438 55.567,152.271 57.5,152.5C 57.3505,153.552 57.5172,154.552 58,155.5C 61.6122,159.698 65.7789,163.032 70.5,165.5C 70.3505,166.552 70.5172,167.552 71,168.5C 78.7829,177.124 87.2829,184.791 96.5,191.5C 96.281,192.675 96.6143,193.675 97.5,194.5C 99.4365,195.954 101.103,197.621 102.5,199.5C 98.1667,199.5 93.8333,199.5 89.5,199.5C 88.4019,198.603 88.4019,197.77 89.5,197C 60.3055,167.472 30.8055,138.305 1,109.5C 0.617425,110.056 0.117425,110.389 -0.5,110.5C -0.5,106.167 -0.5,101.833 -0.5,97.5 Z"/></g>
<g><path style="opacity:1" fill="#40a29b" d="M 143.5,101.5 C 143.938,101.435 144.272,101.601 144.5,102C 143.313,103.019 142.313,104.186 141.5,105.5C 157.25,120.241 171.917,135.241 185.5,150.5C 184.66,152.853 183.326,154.853 181.5,156.5C 180.504,156.414 179.671,156.748 179,157.5C 165.806,144.973 152.973,132.14 140.5,119C 138.101,116.136 135.101,114.303 131.5,113.5C 135.167,109.167 139.167,105.167 143.5,101.5 Z"/></g>
<g><path style="opacity:0.998" fill="#2f3b78" d="M 89.5,199.5 C 88.5,199.5 87.5,199.5 86.5,199.5C 86.5,199.167 86.5,198.833 86.5,198.5C 84.2603,197.736 81.9269,196.902 79.5,196C 53.6064,169.599 27.6064,144.099 1.5,119.5C 0.921588,116.72 0.254922,114.053 -0.5,111.5C -0.5,111.167 -0.5,110.833 -0.5,110.5C 0.117425,110.389 0.617425,110.056 1,109.5C 30.8055,138.305 60.3055,167.472 89.5,197C 88.4019,197.77 88.4019,198.603 89.5,199.5 Z"/></g>
<g><path style="opacity:1" fill="#3e9998" d="M 131.5,113.5 C 135.101,114.303 138.101,116.136 140.5,119C 152.973,132.14 165.806,144.973 179,157.5C 179.671,156.748 180.504,156.414 181.5,156.5C 179.889,160.051 177.556,163.051 174.5,165.5C 173.226,164.811 173.226,163.977 174.5,163C 158.613,146.589 142.946,131.422 127.5,117.5C 128.5,115.833 129.833,114.5 131.5,113.5 Z"/></g>
<g><path style="opacity:1" fill="#3d9296" d="M 127.5,117.5 C 142.946,131.422 158.613,146.589 174.5,163C 173.226,163.977 173.226,164.811 174.5,165.5C 173.833,166.833 172.833,167.833 171.5,168.5C 155.473,152.806 139.473,137.139 123.5,121.5C 124.5,119.833 125.833,118.5 127.5,117.5 Z"/></g>
<g><path style="opacity:0.999" fill="#2e3475" d="M 1.5,119.5 C 27.6064,144.099 53.6064,169.599 79.5,196C 81.9269,196.902 84.2603,197.736 86.5,198.5C 79.0611,198.216 72.0611,196.549 65.5,193.5C 66.525,193.103 66.6917,192.437 66,191.5C 46.6667,172.167 27.3333,152.833 8,133.5C 7.28281,134.044 6.78281,134.711 6.5,135.5C 3.92515,130.559 2.25848,125.225 1.5,119.5 Z"/></g>
<g><path style="opacity:1" fill="#3b8792" d="M 123.5,121.5 C 139.473,137.139 155.473,152.806 171.5,168.5C 169.242,171.425 166.575,174.091 163.5,176.5C 147.585,162.088 132.085,147.088 117,131.5C 117.109,130.231 116.942,129.231 116.5,128.5C 118.5,125.833 120.833,123.5 123.5,121.5 Z"/></g>
<g><path style="opacity:0.998" fill="#2d2d73" d="M 65.5,193.5 C 37.2213,182.888 17.5547,163.554 6.5,135.5C 6.78281,134.711 7.28281,134.044 8,133.5C 27.3333,152.833 46.6667,172.167 66,191.5C 66.6917,192.437 66.525,193.103 65.5,193.5 Z"/></g>
<g><path style="opacity:1" fill="#3a7e8f" d="M 116.5,128.5 C 116.942,129.231 117.109,130.231 117,131.5C 132.085,147.088 147.585,162.088 163.5,176.5C 161.14,178.853 158.473,180.853 155.5,182.5C 155.649,181.448 155.483,180.448 155,179.5C 140.694,165.194 126.36,150.86 112,136.5C 112.195,134.255 113.362,132.422 115.5,131C 115.272,130.601 114.938,130.435 114.5,130.5C 114.833,129.5 115.5,128.833 116.5,128.5 Z"/></g>
<g><path style="opacity:1" fill="#39758c" d="M 114.5,130.5 C 114.938,130.435 115.272,130.601 115.5,131C 113.362,132.422 112.195,134.255 112,136.5C 126.36,150.86 140.694,165.194 155,179.5C 155.483,180.448 155.649,181.448 155.5,182.5C 154.101,183.89 152.434,184.89 150.5,185.5C 149.448,185.649 148.448,185.483 147.5,185C 132.26,170.274 117.927,155.441 104.5,140.5C 107.5,136.833 110.833,133.5 114.5,130.5 Z"/></g>
<g><path style="opacity:1" fill="#376e89" d="M 104.5,140.5 C 117.927,155.441 132.26,170.274 147.5,185C 148.448,185.483 149.448,185.649 150.5,185.5C 147.636,188.014 144.302,189.68 140.5,190.5C 127.392,175.558 113.392,161.391 98.5,148C 99.999,147.162 100.332,146.329 99.5,145.5C 100.833,143.5 102.5,141.833 104.5,140.5 Z"/></g>
<g><path style="opacity:0.997" fill="#366285" d="M 99.5,145.5 C 100.332,146.329 99.999,147.162 98.5,148C 113.392,161.391 127.392,175.558 140.5,190.5C 137.63,192.794 134.297,194.128 130.5,194.5C 117.191,181.388 102.857,167.555 87.5,153C 90.4363,152.215 92.4363,151.049 93.5,149.5C 95.4632,148.18 97.4632,146.846 99.5,145.5 Z"/></g>
</svg>
