<?xml version="1.0" encoding="UTF-8"?>
<!DOCTYPE svg PUBLIC "-//W3C//DTD SVG 1.1//EN" "http://www.w3.org/Graphics/SVG/1.1/DTD/svg11.dtd">
<svg xmlns="http://www.w3.org/2000/svg" version="1.1" width="200px" height="200px" style="shape-rendering:geometricPrecision; text-rendering:geometricPrecision; image-rendering:optimizeQuality; fill-rule:evenodd; clip-rule:evenodd" xmlns:xlink="http://www.w3.org/1999/xlink">
<g><path style="opacity:0.987" fill="#f8991d" d="M 88.5,-0.5 C 95.8333,-0.5 103.167,-0.5 110.5,-0.5C 160.5,8.83333 190.167,38.5 199.5,88.5C 199.5,95.8333 199.5,103.167 199.5,110.5C 190.167,160.5 160.5,190.167 110.5,199.5C 103.167,199.5 95.8333,199.5 88.5,199.5C 39.4117,190.412 9.74502,161.412 -0.5,112.5C -0.5,103.833 -0.5,95.1667 -0.5,86.5C 9.74502,37.5879 39.4117,8.58791 88.5,-0.5 Z"/></g>
<g><path style="opacity:0.091" fill="#f89a1c" d="M 144.5,-0.5 C 145.833,-0.5 147.167,-0.5 148.5,-0.5C 152.268,2.22535 156.268,4.72535 160.5,7C 162.007,7.83726 162.507,9.00392 162,10.5C 156.187,6.68348 150.353,3.01682 144.5,-0.5 Z"/></g>
<g><path style="opacity:0.036" fill="#f8991d" d="M 33.5,10.5 C 34.3764,10.3691 35.0431,10.7025 35.5,11.5C 28.5356,16.7967 22.2023,22.7967 16.5,29.5C 15.5923,28.21 15.759,26.8767 17,25.5C 22.0455,19.9524 27.5455,14.9524 33.5,10.5 Z"/></g>
<g><path style="opacity:0.541" fill="#f8991d" d="M 199.5,49.5 C 199.5,51.1667 199.5,52.8333 199.5,54.5C 195.48,46.9718 190.813,39.8052 185.5,33C 186.635,32.2506 187.635,32.4173 188.5,33.5C 192.189,38.8994 195.856,44.2328 199.5,49.5 Z"/></g>
<g><path style="opacity:1" fill="#fab860" d="M 163.5,50.5 C 120.663,50.168 77.9967,50.5013 35.5,51.5C 34.9569,51.44 34.6236,51.1067 34.5,50.5C 77.6648,49.1692 120.665,49.1692 163.5,50.5 Z"/></g>
<g><path style="opacity:1" fill="#fffefd" d="M 35.5,51.5 C 77.9967,50.5013 120.663,50.168 163.5,50.5C 145.035,69.4653 126.368,88.2986 107.5,107C 103.25,110.655 98.5837,111.321 93.5,109C 74.2986,89.6316 54.9653,70.465 35.5,51.5 Z"/></g>
<g><path style="opacity:1" fill="#fffefd" d="M 30.5,56.5 C 45.1457,70.479 59.479,84.8123 73.5,99.5C 59.8123,113.854 45.8123,127.854 31.5,141.5C 30.502,113.338 30.1687,85.0049 30.5,56.5 Z"/></g>
<g><path style="opacity:1" fill="#fffefc" d="M 167.5,56.5 C 168.833,85.1667 168.833,113.833 167.5,142.5C 153.327,128.16 139.327,113.66 125.5,99C 139.075,84.2589 153.075,70.0923 167.5,56.5 Z"/></g>
<g><path style="opacity:1" fill="#fde3c1" d="M 30.5,56.5 C 30.1687,85.0049 30.502,113.338 31.5,141.5C 31.2172,142.289 30.7172,142.956 30,143.5C 29.1714,113.761 29.3381,84.7612 30.5,56.5 Z"/></g>
<g><path style="opacity:1" fill="#fab760" d="M 167.5,56.5 C 167.56,55.9569 167.893,55.6236 168.5,55.5C 169.833,84.8333 169.833,114.167 168.5,143.5C 167.893,143.376 167.56,143.043 167.5,142.5C 168.833,113.833 168.833,85.1667 167.5,56.5 Z"/></g>
<g><path style="opacity:1" fill="#fffefd" d="M 163.5,148.5 C 120.663,148.832 77.9967,148.499 35.5,147.5C 50.1319,133.369 64.6319,119.035 79,104.5C 82.8666,108.702 87.0332,112.535 91.5,116C 97.3495,119.5 103.016,119.167 108.5,115C 112.015,111.318 115.682,107.818 119.5,104.5C 134.521,118.854 149.188,133.521 163.5,148.5 Z"/></g>
<g><path style="opacity:1" fill="#f9aa40" d="M 35.5,147.5 C 77.9967,148.499 120.663,148.832 163.5,148.5C 120.665,149.831 77.6648,149.831 34.5,148.5C 34.6236,147.893 34.9569,147.56 35.5,147.5 Z"/></g>
<g><path style="opacity:0.646" fill="#f8981c" d="M 149.5,199.5 C 148.167,199.5 146.833,199.5 145.5,199.5C 146.261,198.609 147.261,197.942 148.5,197.5C 149.298,197.957 149.631,198.624 149.5,199.5 Z"/></g>
</svg>
