<?xml version="1.0" encoding="UTF-8"?>
<!DOCTYPE svg PUBLIC "-//W3C//DTD SVG 1.1//EN" "http://www.w3.org/Graphics/SVG/1.1/DTD/svg11.dtd">
<svg xmlns="http://www.w3.org/2000/svg" version="1.1" width="200px" height="200px" style="shape-rendering:geometricPrecision; text-rendering:geometricPrecision; image-rendering:optimizeQuality; fill-rule:evenodd; clip-rule:evenodd" xmlns:xlink="http://www.w3.org/1999/xlink">
<g><path style="opacity:0.98" fill="#c50891" d="M 84.5,-0.5 C 86.8333,-0.5 89.1667,-0.5 91.5,-0.5C 100.964,9.46505 110.631,19.2984 120.5,29C 122.5,29.3333 124.5,29.6667 126.5,30C 123.635,30.1829 120.969,30.6829 118.5,31.5C 111.167,31.5 103.833,31.5 96.5,31.5C 98.9479,30.5269 101.615,30.1936 104.5,30.5C 108.514,30.6655 112.514,30.4988 116.5,30C 113.833,29.6667 111.167,29.3333 108.5,29C 98.9085,19.9126 89.9085,10.4126 81.5,0.5C 82.791,0.737305 83.791,0.403972 84.5,-0.5 Z"/></g>
<g><path style="opacity:0.997" fill="#bf039e" d="M 91.5,-0.5 C 96.1667,-0.5 100.833,-0.5 105.5,-0.5C 116.613,11.6156 128.279,22.949 140.5,33.5C 133.245,32.062 125.912,31.3954 118.5,31.5C 120.969,30.6829 123.635,30.1829 126.5,30C 124.5,29.6667 122.5,29.3333 120.5,29C 110.631,19.2984 100.964,9.46505 91.5,-0.5 Z"/></g>
<g><path style="opacity:0.997" fill="#bc02a8" d="M 105.5,-0.5 C 108.5,-0.5 111.5,-0.5 114.5,-0.5C 117.003,0.370512 119.67,1.03718 122.5,1.5C 147.951,27.6176 172.951,52.6176 197.5,76.5C 197.802,79.3725 198.469,82.0392 199.5,84.5C 199.5,87.5 199.5,90.5 199.5,93.5C 187.442,82.109 176.109,70.7757 165.5,59.5C 161.927,46.2606 153.594,37.5939 140.5,33.5C 128.279,22.949 116.613,11.6156 105.5,-0.5 Z"/></g>
<g><path style="opacity:1" fill="#c70083" d="M 81.5,0.5 C 89.9085,10.4126 98.9085,19.9126 108.5,29C 111.167,29.3333 113.833,29.6667 116.5,30C 112.514,30.4988 108.514,30.6655 104.5,30.5C 102.708,29.6909 100.708,29.1909 98.5,29C 89.631,20.2983 80.9644,11.465 72.5,2.5C 75.4606,1.67664 78.4606,1.00997 81.5,0.5 Z"/></g>
<g><path style="opacity:0.972" fill="#ba00b0" d="M 122.5,1.5 C 161.833,12.1667 186.833,37.1667 197.5,76.5C 172.951,52.6176 147.951,27.6176 122.5,1.5 Z"/></g>
<g><path style="opacity:0.978" fill="#ce0c77" d="M 72.5,2.5 C 80.9644,11.465 89.631,20.2983 98.5,29C 100.708,29.1909 102.708,29.6909 104.5,30.5C 101.615,30.1936 98.9479,30.5269 96.5,31.5C 89.5,31.5 82.5,31.5 75.5,31.5C 77.2646,30.5386 79.2646,30.2053 81.5,30.5C 84.5184,30.6646 87.5184,30.498 90.5,30C 82.2715,21.6036 73.9382,13.437 65.5,5.5C 67.5707,4.05495 69.904,3.05495 72.5,2.5 Z"/></g>
<g><path style="opacity:0.991" fill="#d20065" d="M 65.5,5.5 C 73.9382,13.437 82.2715,21.6036 90.5,30C 87.5184,30.498 84.5184,30.6646 81.5,30.5C 79.0314,29.6829 76.3647,29.1829 73.5,29C 66.8879,22.5574 60.5545,16.0574 54.5,9.5C 57.8674,7.37722 61.534,6.04389 65.5,5.5 Z"/></g>
<g><path style="opacity:0.996" fill="#db004c" d="M 54.5,9.5 C 60.5545,16.0574 66.8879,22.5574 73.5,29C 76.3647,29.1829 79.0314,29.6829 81.5,30.5C 79.2646,30.2053 77.2646,30.5386 75.5,31.5C 73.8333,31.5 72.1667,31.5 70.5,31.5C 68.0521,30.5269 65.3854,30.1936 62.5,30.5C 57.5,24.8333 52.1667,19.5 46.5,14.5C 48.7937,12.347 51.4604,10.6803 54.5,9.5 Z"/></g>
<g><path style="opacity:1" fill="#df003f" d="M 46.5,14.5 C 52.1667,19.5 57.5,24.8333 62.5,30.5C 61.0536,31.6129 59.3869,31.7796 57.5,31C 52.9076,25.9002 47.9076,21.4002 42.5,17.5C 43.4363,16.0256 44.7697,15.0256 46.5,14.5 Z"/></g>
<g><path style="opacity:0.986" fill="#e4022e" d="M 42.5,17.5 C 47.9076,21.4002 52.9076,25.9002 57.5,31C 59.3869,31.7796 61.0536,31.6129 62.5,30.5C 65.3854,30.1936 68.0521,30.5269 70.5,31.5C 64.2041,31.5744 58.2041,32.9077 52.5,35.5C 47.1838,31.1811 42.5171,26.1811 38.5,20.5C 39.2623,18.7376 40.5956,17.7376 42.5,17.5 Z"/></g>
<g><path style="opacity:0.971" fill="#ee0314" d="M 38.5,20.5 C 42.5171,26.1811 47.1838,31.1811 52.5,35.5C 49.1667,37.8333 45.8333,40.1667 42.5,42.5C 37.7997,37.801 33.4664,32.801 29.5,27.5C 32.2085,24.7915 35.2085,22.4581 38.5,20.5 Z"/></g>
<g><path style="opacity:1" fill="#fefdfd" d="M 70.5,31.5 C 72.1667,31.5 73.8333,31.5 75.5,31.5C 82.5,31.5 89.5,31.5 96.5,31.5C 103.833,31.5 111.167,31.5 118.5,31.5C 125.912,31.3954 133.245,32.062 140.5,33.5C 153.594,37.5939 161.927,46.2606 165.5,59.5C 167.085,64.6754 167.752,70.0087 167.5,75.5C 167.5,78.5 167.5,81.5 167.5,84.5C 167.5,93.1667 167.5,101.833 167.5,110.5C 167.5,114.5 167.5,118.5 167.5,122.5C 167.5,125.167 167.5,127.833 167.5,130.5C 166.532,132.607 166.198,134.941 166.5,137.5C 165.304,140.421 164.304,143.421 163.5,146.5C 158.583,156.077 150.917,162.41 140.5,165.5C 137.167,166.167 133.833,166.833 130.5,167.5C 128.167,167.5 125.833,167.5 123.5,167.5C 107.167,167.5 90.8333,167.5 74.5,167.5C 71.5,167.5 68.5,167.5 65.5,167.5C 44.1872,163.188 32.8538,150.188 31.5,128.5C 31.5,125.167 31.5,121.833 31.5,118.5C 31.5,104.167 31.5,89.8333 31.5,75.5C 31.5,74.1667 31.5,72.8333 31.5,71.5C 31.2641,68.3915 31.5975,65.3915 32.5,62.5C 33.7478,54.7354 37.0812,48.0687 42.5,42.5C 45.8333,40.1667 49.1667,37.8333 52.5,35.5C 58.2041,32.9077 64.2041,31.5744 70.5,31.5 Z"/></g>
<g><path style="opacity:1" fill="#f41e08" d="M 29.5,27.5 C 33.4664,32.801 37.7997,37.801 42.5,42.5C 37.0812,48.0687 33.7478,54.7354 32.5,62.5C 31.6078,60.6382 31.4411,58.6382 32,56.5C 26.936,51.6047 22.1026,46.6047 17.5,41.5C 21.1549,36.5137 25.1549,31.847 29.5,27.5 Z"/></g>
<g><path style="opacity:1" fill="#de0141" d="M 79.5,44.5 C 83.3714,44.185 87.0381,44.5184 90.5,45.5C 87.8127,45.3359 85.146,45.5026 82.5,46C 87.8333,51.3333 93.1667,56.6667 98.5,62C 101.478,62.696 104.478,63.196 107.5,63.5C 107.158,64.3382 106.492,64.6716 105.5,64.5C 100.453,64.3375 95.453,64.6708 90.5,65.5C 82.6788,60.359 75.6788,54.0257 69.5,46.5C 72.9773,45.8328 76.3107,45.1661 79.5,44.5 Z"/></g>
<g><path style="opacity:1" fill="#d90052" d="M 90.5,45.5 C 95.8009,51.8021 101.468,57.8021 107.5,63.5C 104.478,63.196 101.478,62.696 98.5,62C 93.1667,56.6667 87.8333,51.3333 82.5,46C 85.146,45.5026 87.8127,45.3359 90.5,45.5 Z"/></g>
<g><path style="opacity:1" fill="#d50c64" d="M 66.5,44.5 C 76.6532,43.5058 86.9865,43.1724 97.5,43.5C 99.6074,44.4682 101.941,44.8016 104.5,44.5C 103.737,45.2679 102.737,45.7679 101.5,46C 118.667,63.1667 135.833,80.3333 153,97.5C 153.21,95.9419 153.71,94.6085 154.5,93.5C 154.194,96.3854 154.527,99.0521 155.5,101.5C 155.827,111.348 155.494,121.014 154.5,130.5C 154.5,128.5 154.5,126.5 154.5,124.5C 154.5,121.167 154.5,117.833 154.5,114.5C 154.666,110.486 154.499,106.486 154,102.5C 153.667,104.5 153.333,106.5 153,108.5C 147,102.833 141,97.1667 135,91.5C 134.536,92.0944 134.369,92.7611 134.5,93.5C 130.513,78.1793 120.846,68.5126 105.5,64.5C 106.492,64.6716 107.158,64.3382 107.5,63.5C 101.468,57.8021 95.8009,51.8021 90.5,45.5C 87.0381,44.5184 83.3714,44.185 79.5,44.5C 75.1667,44.5 70.8333,44.5 66.5,44.5 Z"/></g>
<g><path style="opacity:1" fill="#cf016d" d="M 104.5,44.5 C 110.165,49.6275 116.998,56.2941 125,64.5C 125.625,62.2929 126.459,60.9596 127.5,60.5C 127.5,67.8333 131.167,71.5 138.5,71.5C 138.938,71.4346 139.272,71.6012 139.5,72C 138.833,72.3333 138.167,72.6667 137.5,73C 142.667,78.1667 147.833,83.3333 153,88.5C 153.333,87.1667 153.667,85.8333 154,84.5C 154.498,87.4816 154.665,90.4816 154.5,93.5C 153.71,94.6085 153.21,95.9419 153,97.5C 135.833,80.3333 118.667,63.1667 101.5,46C 102.737,45.7679 103.737,45.2679 104.5,44.5 Z"/></g>
<g><path style="opacity:1" fill="#cc0279" d="M 97.5,43.5 C 102.833,43.5 108.167,43.5 113.5,43.5C 115.698,44.1653 118.031,44.8319 120.5,45.5C 123.881,49.5482 127.548,53.2148 131.5,56.5C 129.806,57.5274 128.473,58.8608 127.5,60.5C 126.459,60.9596 125.625,62.2929 125,64.5C 116.998,56.2941 110.165,49.6275 104.5,44.5C 101.941,44.8016 99.6074,44.4682 97.5,43.5 Z"/></g>
<g><path style="opacity:1" fill="#c51591" d="M 113.5,43.5 C 144.192,39.5278 158.192,52.8611 155.5,83.5C 154.674,78.6835 154.174,73.6835 154,68.5C 153.667,70.1667 153.333,71.8333 153,73.5C 148.179,70.3753 145.512,66.0419 145,60.5C 144.617,61.056 144.117,61.3893 143.5,61.5C 143.262,58.8517 141.928,57.0183 139.5,56C 136.739,55.2782 134.073,55.4448 131.5,56.5C 127.548,53.2148 123.881,49.5482 120.5,45.5C 118.031,44.8319 115.698,44.1653 113.5,43.5 Z"/></g>
<g><path style="opacity:1" fill="#e90522" d="M 66.5,44.5 C 70.8333,44.5 75.1667,44.5 79.5,44.5C 76.3107,45.1661 72.9773,45.8328 69.5,46.5C 75.6788,54.0257 82.6788,60.359 90.5,65.5C 85.9861,66.5548 81.9861,68.5548 78.5,71.5C 77.4019,70.603 77.4019,69.7697 78.5,69C 72.1667,62.6667 65.8333,56.3333 59.5,50C 58.255,49.2086 56.9217,48.7086 55.5,48.5C 58.6599,46 62.3266,44.6667 66.5,44.5 Z"/></g>
<g><path style="opacity:0.999" fill="#f7520f" d="M 17.5,41.5 C 22.1026,46.6047 26.936,51.6047 32,56.5C 31.4411,58.6382 31.6078,60.6382 32.5,62.5C 31.5975,65.3915 31.2641,68.3915 31.5,71.5C 24.5,65.5 17.5,59.5 10.5,53.5C 12.317,49.1994 14.6503,45.1994 17.5,41.5 Z"/></g>
<g><path style="opacity:1" fill="#fef8fb" d="M 143.5,61.5 C 143.925,65.9832 142.259,69.3166 138.5,71.5C 131.167,71.5 127.5,67.8333 127.5,60.5C 128.473,58.8608 129.806,57.5274 131.5,56.5C 134.073,55.4448 136.739,55.2782 139.5,56C 141.928,57.0183 143.262,58.8517 143.5,61.5 Z"/></g>
<g><path style="opacity:0.998" fill="#f96d12" d="M 10.5,53.5 C 17.5,59.5 24.5,65.5 31.5,71.5C 31.5,72.8333 31.5,74.1667 31.5,75.5C 30.5151,79.6344 30.1818,83.9677 30.5,88.5C 29.8215,85.4862 28.3215,82.8196 26,80.5C 20.2522,75.3505 14.7522,69.8505 9.5,64C 7.80666,63.516 6.47332,64.016 5.5,65.5C 6.40254,61.1108 8.0692,57.1108 10.5,53.5 Z"/></g>
<g><path style="opacity:1" fill="#f3100a" d="M 55.5,48.5 C 56.9217,48.7086 58.255,49.2086 59.5,50C 65.8333,56.3333 72.1667,62.6667 78.5,69C 77.4019,69.7697 77.4019,70.603 78.5,71.5C 73.7363,74.9284 70.0696,79.2617 67.5,84.5C 62.2626,77.5742 55.9292,70.9075 48.5,64.5C 47.438,62.9783 46.7713,61.3117 46.5,59.5C 47.8498,54.4584 50.8498,50.7917 55.5,48.5 Z"/></g>
<g><path style="opacity:1" fill="#fffbfb" d="M 105.5,64.5 C 120.846,68.5126 130.513,78.1793 134.5,93.5C 134.5,96.5 134.5,99.5 134.5,102.5C 133.85,104.435 133.517,106.435 133.5,108.5C 132.027,112.779 130.027,116.779 127.5,120.5C 122.541,126.784 116.208,131.117 108.5,133.5C 106.5,133.833 104.5,134.167 102.5,134.5C 78.2254,133.559 65.5588,120.892 64.5,96.5C 64.684,92.2841 65.684,88.2841 67.5,84.5C 70.0696,79.2617 73.7363,74.9284 78.5,71.5C 81.9861,68.5548 85.9861,66.5548 90.5,65.5C 95.453,64.6708 100.453,64.3375 105.5,64.5 Z"/></g>
<g><path style="opacity:0.997" fill="#c0009b" d="M 199.5,93.5 C 199.5,98.8333 199.5,104.167 199.5,109.5C 189.143,97.8113 178.476,86.478 167.5,75.5C 167.752,70.0087 167.085,64.6754 165.5,59.5C 176.109,70.7757 187.442,82.109 199.5,93.5 Z"/></g>
<g><path style="opacity:0.999" fill="#fa8616" d="M 30.5,88.5 C 30.5,92.8333 30.5,97.1667 30.5,101.5C 21.5323,91.5291 12.5323,81.5291 3.5,71.5C 3.25939,69.1016 3.92606,67.1016 5.5,65.5C 6.47332,64.016 7.80666,63.516 9.5,64C 14.7522,69.8505 20.2522,75.3505 26,80.5C 28.3215,82.8196 29.8215,85.4862 30.5,88.5 Z"/></g>
<g><path style="opacity:1" fill="#f6390c" d="M 46.5,59.5 C 46.7713,61.3117 47.438,62.9783 48.5,64.5C 55.9292,70.9075 62.2626,77.5742 67.5,84.5C 65.684,88.2841 64.684,92.2841 64.5,96.5C 63.6909,98.2922 63.1909,100.292 63,102.5C 62.6667,99.8333 62.3333,97.1667 62,94.5C 56.6667,89.1667 51.3333,83.8333 46,78.5C 45.8091,80.7078 45.3091,82.7078 44.5,84.5C 44.5,78.5 44.5,72.5 44.5,66.5C 44.4095,63.8478 45.0762,61.5145 46.5,59.5 Z"/></g>
<g><path style="opacity:1" fill="#cb077c" d="M 155.5,83.5 C 155.5,89.5 155.5,95.5 155.5,101.5C 154.527,99.0521 154.194,96.3854 154.5,93.5C 154.665,90.4816 154.498,87.4816 154,84.5C 153.667,85.8333 153.333,87.1667 153,88.5C 147.833,83.3333 142.667,78.1667 137.5,73C 138.167,72.6667 138.833,72.3333 139.5,72C 139.272,71.6012 138.938,71.4346 138.5,71.5C 142.259,69.3166 143.925,65.9832 143.5,61.5C 144.117,61.3893 144.617,61.056 145,60.5C 145.512,66.0419 148.179,70.3753 153,73.5C 153.333,71.8333 153.667,70.1667 154,68.5C 154.174,73.6835 154.674,78.6835 155.5,83.5 Z"/></g>
<g><path style="opacity:1" fill="#fb9618" d="M 3.5,71.5 C 12.5323,81.5291 21.5323,91.5291 30.5,101.5C 30.665,104.85 30.4983,108.183 30,111.5C 29.6667,110.167 29.3333,108.833 29,107.5C 19.3287,98.0197 10.1621,88.353 1.5,78.5C 1.40953,75.8478 2.07619,73.5145 3.5,71.5 Z"/></g>
<g><path style="opacity:1" fill="#e5002c" d="M 101.5,78.5 C 107.5,85.1667 113.833,91.5 120.5,97.5C 120.662,99.5273 120.495,101.527 120,103.5C 112.167,95.3333 104.333,87.1667 96.5,79C 98.1341,78.5065 99.8008,78.3398 101.5,78.5 Z"/></g>
<g><path style="opacity:0.993" fill="#c40391" d="M 167.5,75.5 C 178.476,86.478 189.143,97.8113 199.5,109.5C 199.5,111.167 199.5,112.833 199.5,114.5C 198.566,115.568 198.232,116.901 198.5,118.5C 188.895,109.396 179.395,100.063 170,90.5C 169.667,87.5 169.333,84.5 169,81.5C 168.768,82.7375 168.268,83.7375 167.5,84.5C 167.5,81.5 167.5,78.5 167.5,75.5 Z"/></g>
<g><path style="opacity:1" fill="#eb1322" d="M 104.5,77.5 C 103.791,78.404 102.791,78.7373 101.5,78.5C 99.8008,78.3398 98.1341,78.5065 96.5,79C 104.333,87.1667 112.167,95.3333 120,103.5C 120.495,101.527 120.662,99.5273 120.5,97.5C 120.263,96.209 120.596,95.209 121.5,94.5C 123.558,101.207 122.225,107.207 117.5,112.5C 108.424,101.92 98.7576,91.7537 88.5,82C 89.7119,80.8932 89.3786,80.3932 87.5,80.5C 92.7228,76.6812 98.3894,75.6812 104.5,77.5 Z"/></g>
<g><path style="opacity:1" fill="#e1133a" d="M 104.5,77.5 C 113.843,79.5095 119.51,85.1762 121.5,94.5C 120.596,95.209 120.263,96.209 120.5,97.5C 113.833,91.5 107.5,85.1667 101.5,78.5C 102.791,78.7373 103.791,78.404 104.5,77.5 Z"/></g>
<g><path style="opacity:0.999" fill="#fca424" d="M 31.5,75.5 C 31.5,89.8333 31.5,104.167 31.5,118.5C 30.71,119.609 30.21,120.942 30,122.5C 29.7305,119.776 29.2305,117.109 28.5,114.5C 18.4249,105.092 8.75822,95.4249 -0.5,85.5C -0.5,85.1667 -0.5,84.8333 -0.5,84.5C 0.285178,82.6264 0.951844,80.6264 1.5,78.5C 10.1621,88.353 19.3287,98.0197 29,107.5C 29.3333,108.833 29.6667,110.167 30,111.5C 30.4983,108.183 30.665,104.85 30.5,101.5C 30.5,97.1667 30.5,92.8333 30.5,88.5C 30.1818,83.9677 30.5151,79.6344 31.5,75.5 Z"/></g>
<g><path style="opacity:0.996" fill="#fcb01b" d="M -0.5,85.5 C 8.75822,95.4249 18.4249,105.092 28.5,114.5C 29.2305,117.109 29.7305,119.776 30,122.5C 30.21,120.942 30.71,119.609 31.5,118.5C 31.5,121.833 31.5,125.167 31.5,128.5C 31.6621,130.527 31.4955,132.527 31,134.5C 30.6082,131.373 29.7749,128.373 28.5,125.5C 18.9178,115.914 9.25115,106.581 -0.5,97.5C -0.5,93.5 -0.5,89.5 -0.5,85.5 Z"/></g>
<g><path style="opacity:1" fill="#d90151" d="M 154.5,114.5 C 153.778,114.918 153.278,115.584 153,116.5C 147.667,111.167 142.333,105.833 137,100.5C 136.667,99.1667 136.333,97.8333 136,96.5C 135.809,98.7078 135.309,100.708 134.5,102.5C 134.5,99.5 134.5,96.5 134.5,93.5C 134.369,92.7611 134.536,92.0944 135,91.5C 141,97.1667 147,102.833 153,108.5C 153.333,106.5 153.667,104.5 154,102.5C 154.499,106.486 154.666,110.486 154.5,114.5 Z"/></g>
<g><path style="opacity:1" fill="#f86413" d="M 64.5,96.5 C 65.5588,120.892 78.2254,133.559 102.5,134.5C 100.708,135.309 98.7078,135.809 96.5,136C 102.802,141.301 108.802,146.968 114.5,153C 112.292,153.191 110.292,153.691 108.5,154.5C 104.818,154.665 101.152,154.499 97.5,154C 98.8333,153.667 100.167,153.333 101.5,153C 83,134.5 64.5,116 46,97.5C 45.6667,99.1667 45.3333,100.833 45,102.5C 44.5005,96.5092 44.3338,90.5092 44.5,84.5C 45.3091,82.7078 45.8091,80.7078 46,78.5C 51.3333,83.8333 56.6667,89.1667 62,94.5C 62.3333,97.1667 62.6667,99.8333 63,102.5C 63.1909,100.292 63.6909,98.2922 64.5,96.5 Z"/></g>
<g><path style="opacity:1" fill="#f3180b" d="M 87.5,80.5 C 89.3786,80.3932 89.7119,80.8932 88.5,82C 98.7576,91.7537 108.424,101.92 117.5,112.5C 115.979,116.115 113.313,118.615 109.5,120C 104.493,122.256 99.4927,122.756 94.5,121.5C 96.631,120.686 98.9644,120.186 101.5,120C 94,112.5 86.5,105 79,97.5C 78.8138,100.036 78.3138,102.369 77.5,104.5C 75.3417,94.1563 78.675,86.1563 87.5,80.5 Z"/></g>
<g><path style="opacity:0.99" fill="#c90782" d="M 198.5,118.5 C 197.833,120.833 197.167,123.167 196.5,125.5C 187.225,117.747 178.058,109.08 169,99.5C 168.502,102.482 168.335,105.482 168.5,108.5C 168.672,109.492 168.338,110.158 167.5,110.5C 167.5,101.833 167.5,93.1667 167.5,84.5C 168.268,83.7375 168.768,82.7375 169,81.5C 169.333,84.5 169.667,87.5 170,90.5C 179.395,100.063 188.895,109.396 198.5,118.5 Z"/></g>
<g><path style="opacity:1" fill="#f9781c" d="M 44.5,66.5 C 44.5,72.5 44.5,78.5 44.5,84.5C 44.3338,90.5092 44.5005,96.5092 45,102.5C 45.3333,100.833 45.6667,99.1667 46,97.5C 64.5,116 83,134.5 101.5,153C 100.167,153.333 98.8333,153.667 97.5,154C 101.152,154.499 104.818,154.665 108.5,154.5C 111.833,154.5 115.167,154.5 118.5,154.5C 121.5,154.5 124.5,154.5 127.5,154.5C 117.347,155.494 107.014,155.828 96.5,155.5C 82.1892,140.368 65.3558,123.368 46,104.5C 45.8019,106.382 45.3019,108.048 44.5,109.5C 44.7678,107.901 44.4345,106.568 43.5,105.5C 43.1712,92.3226 43.5045,79.3226 44.5,66.5 Z"/></g>
<g><path style="opacity:1" fill="#f63b0f" d="M 94.5,121.5 C 85.1762,119.51 79.5095,113.843 77.5,104.5C 78.3138,102.369 78.8138,100.036 79,97.5C 86.5,105 94,112.5 101.5,120C 98.9644,120.186 96.631,120.686 94.5,121.5 Z"/></g>
<g><path style="opacity:1" fill="#fa8616" d="M 96.5,155.5 C 92.1667,155.5 87.8333,155.5 83.5,155.5C 83.1583,154.662 82.4916,154.328 81.5,154.5C 81.9175,153.778 82.5842,153.278 83.5,153C 71,140.5 58.5,128 46,115.5C 45.6667,116.167 45.3333,116.833 45,117.5C 44.5026,114.854 44.3359,112.187 44.5,109.5C 45.3019,108.048 45.8019,106.382 46,104.5C 65.3558,123.368 82.1892,140.368 96.5,155.5 Z"/></g>
<g><path style="opacity:1" fill="#cd0074" d="M 196.5,125.5 C 196.097,128.486 195.097,131.152 193.5,133.5C 185.5,124.833 177.167,116.5 168.5,108.5C 168.335,105.482 168.502,102.482 169,99.5C 178.058,109.08 187.225,117.747 196.5,125.5 Z"/></g>
<g><path style="opacity:1" fill="#e0043b" d="M 154.5,114.5 C 154.5,117.833 154.5,121.167 154.5,124.5C 153.837,126.042 153.17,127.709 152.5,129.5C 144.974,123.321 138.641,116.321 133.5,108.5C 133.517,106.435 133.85,104.435 134.5,102.5C 135.309,100.708 135.809,98.7078 136,96.5C 136.333,97.8333 136.667,99.1667 137,100.5C 142.333,105.833 147.667,111.167 153,116.5C 153.278,115.584 153.778,114.918 154.5,114.5 Z"/></g>
<g><path style="opacity:0.999" fill="#d2076a" d="M 168.5,108.5 C 177.167,116.5 185.5,124.833 193.5,133.5C 193.122,135.921 192.455,138.254 191.5,140.5C 184.527,132.86 177.194,125.527 169.5,118.5C 168.684,119.157 168.017,120.49 167.5,122.5C 167.5,118.5 167.5,114.5 167.5,110.5C 168.338,110.158 168.672,109.492 168.5,108.5 Z"/></g>
<g><path style="opacity:1" fill="#e90422" d="M 133.5,108.5 C 138.641,116.321 144.974,123.321 152.5,129.5C 153.17,127.709 153.837,126.042 154.5,124.5C 154.5,126.5 154.5,128.5 154.5,130.5C 154.483,134.534 153.483,138.201 151.5,141.5C 144.724,135.234 137.724,128.401 130.5,121C 129.552,120.517 128.552,120.351 127.5,120.5C 130.027,116.779 132.027,112.779 133.5,108.5 Z"/></g>
<g><path style="opacity:1" fill="#fb981a" d="M 43.5,105.5 C 44.4345,106.568 44.7678,107.901 44.5,109.5C 44.3359,112.187 44.5026,114.854 45,117.5C 45.3333,116.833 45.6667,116.167 46,115.5C 58.5,128 71,140.5 83.5,153C 82.5842,153.278 81.9175,153.778 81.5,154.5C 77.4862,154.666 73.4862,154.499 69.5,154C 70.1667,153.667 70.8333,153.333 71.5,153C 63,144.5 54.5,136 46,127.5C 45.7679,128.737 45.2679,129.737 44.5,130.5C 43.5314,122.252 43.1981,113.918 43.5,105.5 Z"/></g>
<g><path style="opacity:1" fill="#d6005c" d="M 169.5,118.5 C 177.194,125.527 184.527,132.86 191.5,140.5C 190.737,142.368 189.737,144.035 188.5,145.5C 182.957,138.449 176.79,131.782 170,125.5C 169.503,123.19 169.337,120.857 169.5,118.5 Z"/></g>
<g><path style="opacity:1" fill="#da004f" d="M 169.5,118.5 C 169.337,120.857 169.503,123.19 170,125.5C 176.79,131.782 182.957,138.449 188.5,145.5C 187.529,147.483 186.529,149.483 185.5,151.5C 184.226,150.811 184.226,149.977 185.5,149C 179.27,142.938 173.27,136.771 167.5,130.5C 167.5,127.833 167.5,125.167 167.5,122.5C 168.017,120.49 168.684,119.157 169.5,118.5 Z"/></g>
<g><path style="opacity:0.98" fill="#fecf1f" d="M 81.5,198.5 C 37.9296,188.596 10.9296,161.929 0.5,118.5C 1.22158,118.082 1.72158,117.416 2,116.5C 27.9611,143.462 54.2945,170.128 81,196.5C 81.4643,197.094 81.631,197.761 81.5,198.5 Z"/></g>
<g><path style="opacity:1" fill="#fcab21" d="M 81.5,154.5 C 82.4916,154.328 83.1583,154.662 83.5,155.5C 73.71,156.546 64.3767,155.046 55.5,151C 48.3127,146.129 44.646,139.296 44.5,130.5C 45.2679,129.737 45.7679,128.737 46,127.5C 54.5,136 63,144.5 71.5,153C 70.8333,153.333 70.1667,153.667 69.5,154C 73.4862,154.499 77.4862,154.666 81.5,154.5 Z"/></g>
<g><path style="opacity:1" fill="#f31a0a" d="M 127.5,120.5 C 128.552,120.351 129.552,120.517 130.5,121C 137.724,128.401 144.724,135.234 151.5,141.5C 146.521,150.996 138.521,155.329 127.5,154.5C 124.5,154.5 121.5,154.5 118.5,154.5C 121.641,153.679 124.975,153.179 128.5,153C 121.938,146.27 115.271,139.77 108.5,133.5C 116.208,131.117 122.541,126.784 127.5,120.5 Z"/></g>
<g><path style="opacity:1" fill="#f74a0e" d="M 108.5,133.5 C 115.271,139.77 121.938,146.27 128.5,153C 124.975,153.179 121.641,153.679 118.5,154.5C 115.167,154.5 111.833,154.5 108.5,154.5C 110.292,153.691 112.292,153.191 114.5,153C 108.802,146.968 102.802,141.301 96.5,136C 98.7078,135.809 100.708,135.309 102.5,134.5C 104.5,134.167 106.5,133.833 108.5,133.5 Z"/></g>
<g><path style="opacity:0.986" fill="#df0342" d="M 167.5,130.5 C 173.27,136.771 179.27,142.938 185.5,149C 184.226,149.977 184.226,150.811 185.5,151.5C 184.396,153.389 183.063,155.055 181.5,156.5C 177.578,151.072 173.078,146.072 168,141.5C 167.79,139.942 167.29,138.609 166.5,137.5C 166.198,134.941 166.532,132.607 167.5,130.5 Z"/></g>
<g><path style="opacity:1" fill="#e5042e" d="M 166.5,137.5 C 167.29,138.609 167.79,139.942 168,141.5C 173.078,146.072 177.578,151.072 181.5,156.5C 181.262,158.404 180.262,159.738 178.5,160.5C 172.819,156.483 167.819,151.816 163.5,146.5C 164.304,143.421 165.304,140.421 166.5,137.5 Z"/></g>
<g><path style="opacity:1" fill="#f2190c" d="M 163.5,146.5 C 167.819,151.816 172.819,156.483 178.5,160.5C 172.909,169.301 165.576,176.301 156.5,181.5C 151.473,175.806 146.14,170.473 140.5,165.5C 150.917,162.41 158.583,156.077 163.5,146.5 Z"/></g>
<g><path style="opacity:0.983" fill="#fec21f" d="M -0.5,97.5 C 9.25115,106.581 18.9178,115.914 28.5,125.5C 29.7749,128.373 30.6082,131.373 31,134.5C 31.4955,132.527 31.6621,130.527 31.5,128.5C 32.8538,150.188 44.1872,163.188 65.5,167.5C 75.0271,177.386 85.3604,188.052 96.5,199.5C 92.5,199.5 88.5,199.5 84.5,199.5C 83.791,198.596 82.791,198.263 81.5,198.5C 81.631,197.761 81.4643,197.094 81,196.5C 54.2945,170.128 27.9611,143.462 2,116.5C 1.72158,117.416 1.22158,118.082 0.5,118.5C 0.767809,116.901 0.434475,115.568 -0.5,114.5C -0.5,108.833 -0.5,103.167 -0.5,97.5 Z"/></g>
<g><path style="opacity:0.994" fill="#f7470f" d="M 140.5,165.5 C 146.14,170.473 151.473,175.806 156.5,181.5C 154.853,183.326 152.853,184.66 150.5,185.5C 144.108,179.104 137.442,173.104 130.5,167.5C 133.833,166.833 137.167,166.167 140.5,165.5 Z"/></g>
<g><path style="opacity:0.994" fill="#fdb41c" d="M 65.5,167.5 C 68.5,167.5 71.5,167.5 74.5,167.5C 74.5,167.833 74.5,168.167 74.5,168.5C 74.9303,169.421 76.2636,169.921 78.5,170C 88.3689,179.702 98.0355,189.535 107.5,199.5C 103.833,199.5 100.167,199.5 96.5,199.5C 85.3604,188.052 75.0271,177.386 65.5,167.5 Z"/></g>
<g><path style="opacity:0.993" fill="#fca71a" d="M 74.5,168.5 C 79.1624,168.962 83.8291,169.462 88.5,170C 98.0629,179.395 107.396,188.895 116.5,198.5C 115.508,198.328 114.842,198.662 114.5,199.5C 112.167,199.5 109.833,199.5 107.5,199.5C 98.0355,189.535 88.3689,179.702 78.5,170C 76.2636,169.921 74.9303,169.421 74.5,168.5 Z"/></g>
<g><path style="opacity:0.999" fill="#fb9c24" d="M 74.5,168.5 C 74.5,168.167 74.5,167.833 74.5,167.5C 90.8333,167.5 107.167,167.5 123.5,167.5C 118.36,168.488 113.026,168.821 107.5,168.5C 101.709,168.057 98.0422,168.391 96.5,169.5C 105.88,178.854 114.547,188.187 122.5,197.5C 120.565,198.15 118.565,198.483 116.5,198.5C 107.396,188.895 98.0629,179.395 88.5,170C 83.8291,169.462 79.1624,168.962 74.5,168.5 Z"/></g>
<g><path style="opacity:1" fill="#fa8e17" d="M 96.5,169.5 C 99.1873,169.336 101.854,169.503 104.5,170C 113.093,178.088 121.093,186.588 128.5,195.5C 126.579,196.363 124.579,197.029 122.5,197.5C 114.547,188.187 105.88,178.854 96.5,169.5 Z"/></g>
<g><path style="opacity:0.983" fill="#f97f14" d="M 107.5,168.5 C 110.977,169.323 114.644,169.823 118.5,170C 125.729,177.397 133.062,184.563 140.5,191.5C 136.567,193.033 132.567,194.367 128.5,195.5C 121.093,186.588 113.093,178.088 104.5,170C 101.854,169.503 99.1873,169.336 96.5,169.5C 98.0422,168.391 101.709,168.057 107.5,168.5 Z"/></g>
<g><path style="opacity:0.999" fill="#f86210" d="M 123.5,167.5 C 125.833,167.5 128.167,167.5 130.5,167.5C 137.442,173.104 144.108,179.104 150.5,185.5C 147.534,187.988 144.201,189.988 140.5,191.5C 133.062,184.563 125.729,177.397 118.5,170C 114.644,169.823 110.977,169.323 107.5,168.5C 113.026,168.821 118.36,168.488 123.5,167.5 Z"/></g>
</svg>
