<?xml version="1.0" encoding="UTF-8"?>
<!DOCTYPE svg PUBLIC "-//W3C//DTD SVG 1.1//EN" "http://www.w3.org/Graphics/SVG/1.1/DTD/svg11.dtd">
<svg xmlns="http://www.w3.org/2000/svg" version="1.1" width="200px" height="200px" style="shape-rendering:geometricPrecision; text-rendering:geometricPrecision; image-rendering:optimizeQuality; fill-rule:evenodd; clip-rule:evenodd" xmlns:xlink="http://www.w3.org/1999/xlink">
<g><path style="opacity:1" fill="#b2cf01" d="M 99.5,0.5 C 99.5,16.1667 99.5,31.8333 99.5,47.5C 99.1667,47.5 98.8333,47.5 98.5,47.5C 85.6859,40.2303 72.6859,33.0636 59.5,26C 57.9069,25.0513 56.5736,23.8846 55.5,22.5C 67.8457,14.3616 80.8457,7.19498 94.5,1C 96.1341,0.506489 97.8008,0.339822 99.5,0.5 Z"/></g>
<g><path style="opacity:1" fill="#6ab704" d="M 99.5,0.5 C 103.732,0.777742 107.732,1.94441 111.5,4C 122.361,9.92716 133.028,16.0938 143.5,22.5C 129.003,30.5809 114.669,38.9142 100.5,47.5C 100.167,47.5 99.8333,47.5 99.5,47.5C 99.5,31.8333 99.5,16.1667 99.5,0.5 Z"/></g>
<g><path style="opacity:1" fill="#fe6901" d="M 53.5,23.5 C 53.5,40.1667 53.5,56.8333 53.5,73.5C 39.3403,66.59 25.6736,58.9233 12.5,50.5C 13.2026,48.2843 14.5359,46.451 16.5,45C 28.524,37.3206 40.8573,30.154 53.5,23.5 Z"/></g>
<g><path style="opacity:1" fill="#fea501" d="M 55.5,22.5 C 56.5736,23.8846 57.9069,25.0513 59.5,26C 72.6859,33.0636 85.6859,40.2303 98.5,47.5C 84.0351,56.9054 69.0351,65.5721 53.5,73.5C 53.5,56.8333 53.5,40.1667 53.5,23.5C 53.8417,22.6618 54.5084,22.3284 55.5,22.5 Z"/></g>
<g><path style="opacity:1" fill="#06d8bb" d="M 144.5,23.5 C 158.852,30.0916 172.352,38.0916 185,47.5C 185.791,48.745 186.291,50.0783 186.5,51.5C 172.469,58.8483 158.469,66.1816 144.5,73.5C 143.833,73.5 143.5,73.1667 143.5,72.5C 144.496,56.3419 144.83,40.0085 144.5,23.5 Z"/></g>
<g><path style="opacity:1" fill="#03af9c" d="M 143.5,22.5 C 144.167,22.5 144.5,22.8333 144.5,23.5C 144.83,40.0085 144.496,56.3419 143.5,72.5C 128.699,64.9343 114.366,56.601 100.5,47.5C 114.669,38.9142 129.003,30.5809 143.5,22.5 Z"/></g>
<g><path style="opacity:1" fill="#f93849" d="M 12.5,50.5 C 25.6736,58.9233 39.3403,66.59 53.5,73.5C 53.5,73.8333 53.5,74.1667 53.5,74.5C 38.6611,83.087 23.6611,91.4203 8.5,99.5C 8.33343,85.496 8.50009,71.496 9,57.5C 9.89837,54.9309 11.065,52.5976 12.5,50.5 Z"/></g>
<g><path style="opacity:1" fill="#803d8a" d="M 186.5,51.5 C 187.793,52.842 188.626,54.5087 189,56.5C 189.5,71.4963 189.667,86.4963 189.5,101.5C 189.167,101.5 188.833,101.5 188.5,101.5C 188.063,99.9256 187.063,98.7589 185.5,98C 171.779,90.143 158.112,82.3097 144.5,74.5C 144.5,74.1667 144.5,73.8333 144.5,73.5C 158.469,66.1816 172.469,58.8483 186.5,51.5 Z"/></g>
<g><path style="opacity:1" fill="#813d8a" d="M 53.5,74.5 C 53.5,91.1667 53.5,107.833 53.5,124.5C 38.0688,117.25 23.0688,109.25 8.5,100.5C 8.5,100.167 8.5,99.8333 8.5,99.5C 23.6611,91.4203 38.6611,83.087 53.5,74.5 Z"/></g>
<g><path style="opacity:1" fill="#503086" d="M 144.5,74.5 C 158.112,82.3097 171.779,90.143 185.5,98C 187.063,98.7589 188.063,99.9256 188.5,101.5C 173.833,109.167 159.167,116.833 144.5,124.5C 144.5,107.833 144.5,91.1667 144.5,74.5 Z"/></g>
<g><path style="opacity:1" fill="#4f3186" d="M 8.5,100.5 C 23.0688,109.25 38.0688,117.25 53.5,124.5C 53.5,124.833 53.5,125.167 53.5,125.5C 39.6691,133.248 26.0024,141.248 12.5,149.5C 11.243,146.904 10.0764,144.237 9,141.5C 8.5001,127.837 8.33343,114.171 8.5,100.5 Z"/></g>
<g><path style="opacity:1" fill="#f93849" d="M 188.5,101.5 C 188.833,101.5 189.167,101.5 189.5,101.5C 189.667,115.171 189.5,128.837 189,142.5C 188.256,144.9 187.423,147.233 186.5,149.5C 172.5,141.5 158.5,133.5 144.5,125.5C 144.5,125.167 144.5,124.833 144.5,124.5C 159.167,116.833 173.833,109.167 188.5,101.5 Z"/></g>
<g><path style="opacity:1" fill="#0368a4" d="M 53.5,125.5 C 53.5,142.167 53.5,158.833 53.5,175.5C 43.6667,170.819 34,165.652 24.5,160C 19.7144,157.38 15.7144,153.88 12.5,149.5C 26.0024,141.248 39.6691,133.248 53.5,125.5 Z"/></g>
<g><path style="opacity:0.999" fill="#fe6a01" d="M 144.5,125.5 C 158.5,133.5 172.5,141.5 186.5,149.5C 184,152.832 181,155.666 177.5,158C 166.473,164.179 155.473,170.345 144.5,176.5C 144.5,159.5 144.5,142.5 144.5,125.5 Z"/></g>
<g><path style="opacity:0.999" fill="#03bdcb" d="M 53.5,125.5 C 68.3998,133.065 83.0665,141.065 97.5,149.5C 97.5858,150.496 97.2524,151.329 96.5,152C 82.439,159.689 68.7723,167.856 55.5,176.5C 54.5084,176.672 53.8417,176.338 53.5,175.5C 53.5,158.833 53.5,142.167 53.5,125.5 Z"/></g>
<g><path style="opacity:1" fill="#fda601" d="M 144.5,125.5 C 144.5,142.5 144.5,159.5 144.5,176.5C 144.167,176.5 143.833,176.5 143.5,176.5C 129.727,168.108 115.727,159.941 101.5,152C 100.748,151.329 100.414,150.496 100.5,149.5C 115.198,141.486 129.865,133.486 144.5,125.5 Z"/></g>
<g><path style="opacity:0.999" fill="#b2cf01" d="M 100.5,149.5 C 100.414,150.496 100.748,151.329 101.5,152C 115.727,159.941 129.727,168.108 143.5,176.5C 133.727,182.559 123.727,188.392 113.5,194C 109.234,196.811 104.567,198.311 99.5,198.5C 99.5,182.5 99.5,166.5 99.5,150.5C 99.5,149.833 99.8333,149.5 100.5,149.5 Z"/></g>
<g><path style="opacity:1" fill="#6ab705" d="M 97.5,149.5 C 98.1667,149.833 98.8333,150.167 99.5,150.5C 99.5,166.5 99.5,182.5 99.5,198.5C 96.4318,198.453 93.4318,197.953 90.5,197C 78.4417,190.645 66.775,183.811 55.5,176.5C 68.7723,167.856 82.439,159.689 96.5,152C 97.2524,151.329 97.5858,150.496 97.5,149.5 Z"/></g>
</svg>
