<?xml version="1.0" encoding="UTF-8"?>
<!DOCTYPE svg PUBLIC "-//W3C//DTD SVG 1.1//EN" "http://www.w3.org/Graphics/SVG/1.1/DTD/svg11.dtd">
<svg xmlns="http://www.w3.org/2000/svg" version="1.1" width="200px" height="200px" style="shape-rendering:geometricPrecision; text-rendering:geometricPrecision; image-rendering:optimizeQuality; fill-rule:evenodd; clip-rule:evenodd" xmlns:xlink="http://www.w3.org/1999/xlink">
<g><path style="opacity:0.981" fill="#fdfdfe" d="M 85.5,-0.5 C 94.8333,-0.5 104.167,-0.5 113.5,-0.5C 160.716,9.04972 189.383,37.383 199.5,84.5C 199.5,94.5 199.5,104.5 199.5,114.5C 196.685,129.43 191.019,143.263 182.5,156C 184.884,169.9 186.551,183.734 187.5,197.5C 175.068,193.934 162.568,190.6 150,187.5C 138.437,192.632 126.604,196.632 114.5,199.5C 104.833,199.5 95.1667,199.5 85.5,199.5C 48.0298,192.496 21.5298,171.496 6,136.5C 3.33838,128.837 1.17171,121.171 -0.5,113.5C -0.5,104.167 -0.5,94.8333 -0.5,85.5C 6.50414,48.0298 27.5041,21.5298 62.5,6C 70.1627,3.33838 77.8294,1.17171 85.5,-0.5 Z"/></g>
<g><path style="opacity:1" fill="#184d9d" d="M 178.5,50.5 C 177.115,49.4264 175.949,48.0931 175,46.5C 165.278,54.6101 155.112,62.1101 144.5,69C 146.085,71.0693 147.419,73.236 148.5,75.5C 144.731,71.2288 140.731,67.0621 136.5,63C 129.373,57.5414 122.539,51.7081 116,45.5C 109.199,32.2613 112.366,22.0947 125.5,15C 129.833,14.3333 134.167,14.3333 138.5,15C 156.094,22.0976 169.428,33.931 178.5,50.5 Z"/></g>
<g><path style="opacity:1" fill="#1169b2" d="M 62.5,45.5 C 62.631,44.7611 62.4643,44.0944 62,43.5C 61.8371,45.676 61.0037,47.5093 59.5,49C 45.5852,52.4502 31.5852,55.1169 17.5,57C 18.7736,56.0228 18.7736,55.1894 17.5,54.5C 31.6616,29.2288 52.9949,13.3954 81.5,7C 93.1667,5 104.833,5 116.5,7C 87.9037,5.42961 69.9037,18.2629 62.5,45.5 Z"/></g>
<g><path style="opacity:1" fill="#1761ab" d="M 62.5,45.5 C 60.508,60.7287 61.508,75.7287 65.5,90.5C 64.6906,91.4687 63.6906,92.3021 62.5,93C 44.1855,96.9959 25.8522,100.829 7.5,104.5C 7.82141,98.9738 7.48808,93.6405 6.5,88.5C 7.3839,76.1837 11.0506,64.8503 17.5,54.5C 18.7736,55.1894 18.7736,56.0228 17.5,57C 31.5852,55.1169 45.5852,52.4502 59.5,49C 61.0037,47.5093 61.8371,45.676 62,43.5C 62.4643,44.0944 62.631,44.7611 62.5,45.5 Z"/></g>
<g><path style="opacity:1" fill="#1055a5" d="M 178.5,50.5 C 193.457,73.2498 197.29,97.9165 190,124.5C 186.021,135.118 181.521,145.451 176.5,155.5C 178.656,166.76 179.823,178.093 180,189.5C 168.929,186.815 157.929,183.815 147,180.5C 121.139,195.001 94.3058,197.168 66.5,187C 61.3256,185.249 56.659,182.749 52.5,179.5C 80.3712,192.441 107.705,191.274 134.5,176C 152.604,161.793 161.937,143.126 162.5,120C 162.529,103.593 157.863,88.7594 148.5,75.5C 147.419,73.236 146.085,71.0693 144.5,69C 155.112,62.1101 165.278,54.6101 175,46.5C 175.949,48.0931 177.115,49.4264 178.5,50.5 Z"/></g>
<g><path style="opacity:1" fill="#175aa4" d="M 6.5,88.5 C 7.48808,93.6405 7.82141,98.9738 7.5,104.5C 25.8522,100.829 44.1855,96.9959 62.5,93C 63.6906,92.3021 64.6906,91.4687 65.5,90.5C 68.0294,97.4214 70.3627,104.421 72.5,111.5C 71.4664,112.687 70.133,113.52 68.5,114C 49.4615,117.872 30.6282,122.372 12,127.5C 11.3747,125.293 10.5414,123.96 9.5,123.5C 5.74009,112.049 4.74009,100.382 6.5,88.5 Z"/></g>
<g><path style="opacity:1" fill="#1755a0" d="M 72.5,111.5 C 74.603,115.574 75.9364,119.907 76.5,124.5C 75.8141,125.848 74.8141,127.015 73.5,128C 55.2618,131.988 36.7618,136.155 18,140.5C 17.228,140.355 16.5613,140.022 16,139.5C 15,137.167 14,134.833 13,132.5C 12.6012,132.728 12.4346,133.062 12.5,133.5C 10.8993,130.45 9.89934,127.116 9.5,123.5C 10.5414,123.96 11.3747,125.293 12,127.5C 30.6282,122.372 49.4615,117.872 68.5,114C 70.133,113.52 71.4664,112.687 72.5,111.5 Z"/></g>
<g><path style="opacity:1" fill="#1d4f9c" d="M 76.5,124.5 C 79.3802,144.194 71.0469,156.694 51.5,162C 38.2054,163.934 27.7054,159.434 20,148.5C 16.4345,144.036 13.9345,139.036 12.5,133.5C 12.4346,133.062 12.6012,132.728 13,132.5C 14,134.833 15,137.167 16,139.5C 16.5613,140.022 17.228,140.355 18,140.5C 36.7618,136.155 55.2618,131.988 73.5,128C 74.8141,127.015 75.8141,125.848 76.5,124.5 Z"/></g>
<g><path style="opacity:1" fill="#85a4cf" d="M 52.5,179.5 C 48.2294,178.364 44.5627,176.198 41.5,173C 42.1667,172.333 42.8333,172.333 43.5,173C 46.5672,175.188 49.5672,177.355 52.5,179.5 Z"/></g>
</svg>
