<?xml version="1.0" encoding="UTF-8"?>
<!DOCTYPE svg PUBLIC "-//W3C//DTD SVG 1.1//EN" "http://www.w3.org/Graphics/SVG/1.1/DTD/svg11.dtd">
<svg xmlns="http://www.w3.org/2000/svg" version="1.1" width="200px" height="200px" style="shape-rendering:geometricPrecision; text-rendering:geometricPrecision; image-rendering:optimizeQuality; fill-rule:evenodd; clip-rule:evenodd" xmlns:xlink="http://www.w3.org/1999/xlink">
<g><path style="opacity:0.998" fill="#35ade1" d="M 85.5,-0.5 C 95.1667,-0.5 104.833,-0.5 114.5,-0.5C 135.173,3.16974 153.173,12.1697 168.5,26.5C 145.843,27.8331 122.843,28.4997 99.5,28.5C 76.3309,28.5 53.3309,28.1666 30.5,27.5C 45.6819,12.0754 64.0152,2.74204 85.5,-0.5 Z"/></g>
<g><path style="opacity:1" fill="#32aadf" d="M 168.5,26.5 C 175.696,33.2212 181.696,40.8879 186.5,49.5C 185.711,49.7828 185.044,50.2828 184.5,51C 156,51.1667 127.5,51.3333 99,51.5C 69.953,51.492 41.1197,50.8253 12.5,49.5C 17.0754,41.0247 23.0754,33.6914 30.5,27.5C 53.3309,28.1666 76.3309,28.5 99.5,28.5C 122.843,28.4997 145.843,27.8331 168.5,26.5 Z"/></g>
<g><path style="opacity:0.998" fill="#2ea5dc" d="M 12.5,49.5 C 41.1197,50.8253 69.953,51.492 99,51.5C 127.5,51.3333 156,51.1667 184.5,51C 185.044,50.2828 185.711,49.7828 186.5,49.5C 192.818,60.4628 197.152,72.1295 199.5,84.5C 199.5,87.5 199.5,90.5 199.5,93.5C 181.243,92.5138 162.91,92.1804 144.5,92.5C 144.737,91.209 144.404,90.209 143.5,89.5C 146.072,78.6382 147.739,67.6382 148.5,56.5C 145.059,56.3011 141.726,56.8011 138.5,58C 108.37,68.9021 78.3696,80.0688 48.5,91.5C 48.44,90.9569 48.1067,90.6236 47.5,90.5C 45.5,91.5 43.5,92.5 41.5,93.5C 27.3398,92.5298 13.3398,92.1965 -0.5,92.5C -0.5,90.1667 -0.5,87.8333 -0.5,85.5C 1.83219,72.8414 6.16552,60.8414 12.5,49.5 Z"/></g>
<g><path style="opacity:1" fill="#fdfefe" d="M 143.5,89.5 C 139.548,104.645 135.882,119.978 132.5,135.5C 131.776,138.083 130.943,140.749 130,143.5C 128.192,145.396 126.025,145.896 123.5,145C 116.157,139 108.49,133.5 100.5,128.5C 95.0463,124.267 89.3796,120.267 83.5,116.5C 85.2199,113.269 87.5532,110.436 90.5,108C 103.271,97.2315 115.438,85.7315 127,73.5C 127.667,72.8333 127.667,72.1667 127,71.5C 107.483,84.1686 87.6492,96.1686 67.5,107.5C 59.0417,105.515 50.7084,103.015 42.5,100C 40.9926,99.1627 40.4926,97.9961 41,96.5C 43.0987,94.2028 45.5987,92.5361 48.5,91.5C 78.3696,80.0688 108.37,68.9021 138.5,58C 141.726,56.8011 145.059,56.3011 148.5,56.5C 147.739,67.6382 146.072,78.6382 143.5,89.5 Z"/></g>
<g><path style="opacity:1" fill="#c8d9e9" d="M 83.5,116.5 C 81.9876,124.469 80.6543,132.469 79.5,140.5C 79.2041,138.597 78.5375,136.93 77.5,135.5C 74.3622,126.086 71.0289,116.753 67.5,107.5C 87.6492,96.1686 107.483,84.1686 127,71.5C 127.667,72.1667 127.667,72.8333 127,73.5C 115.438,85.7315 103.271,97.2315 90.5,108C 87.5532,110.436 85.2199,113.269 83.5,116.5 Z"/></g>
<g><path style="opacity:0.999" fill="#289ed9" d="M 48.5,91.5 C 45.5987,92.5361 43.0987,94.2028 41,96.5C 40.4926,97.9961 40.9926,99.1627 42.5,100C 50.7084,103.015 59.0417,105.515 67.5,107.5C 71.0289,116.753 74.3622,126.086 77.5,135.5C 76.7784,135.918 76.2784,136.584 76,137.5C 53.5752,136.506 31.0752,136.173 8.5,136.5C 8.5,138.167 8.5,139.833 8.5,141.5C 4.49564,132.82 1.49564,123.82 -0.5,114.5C -0.5,107.167 -0.5,99.8333 -0.5,92.5C 13.3398,92.1965 27.3398,92.5298 41.5,93.5C 43.5,92.5 45.5,91.5 47.5,90.5C 48.1067,90.6236 48.44,90.9569 48.5,91.5 Z"/></g>
<g><path style="opacity:0.999" fill="#299fd9" d="M 143.5,89.5 C 144.404,90.209 144.737,91.209 144.5,92.5C 162.91,92.1804 181.243,92.5138 199.5,93.5C 199.5,100.5 199.5,107.5 199.5,114.5C 197.441,124.044 194.441,133.377 190.5,142.5C 189.733,141.828 189.066,140.995 188.5,140C 189.973,139.29 190.64,138.124 190.5,136.5C 171.431,137.146 152.598,136.48 134,134.5C 133.617,135.056 133.117,135.389 132.5,135.5C 135.882,119.978 139.548,104.645 143.5,89.5 Z"/></g>
<g><path style="opacity:1" fill="#a9c6d8" d="M 83.5,116.5 C 89.3796,120.267 95.0463,124.267 100.5,128.5C 94.4731,132.014 89.1397,136.514 84.5,142C 82.3258,142.877 80.6591,142.377 79.5,140.5C 80.6543,132.469 81.9876,124.469 83.5,116.5 Z"/></g>
<g><path style="opacity:0.999" fill="#2399d6" d="M 100.5,128.5 C 108.49,133.5 116.157,139 123.5,145C 126.025,145.896 128.192,145.396 130,143.5C 130.943,140.749 131.776,138.083 132.5,135.5C 133.117,135.389 133.617,135.056 134,134.5C 152.598,136.48 171.431,137.146 190.5,136.5C 190.64,138.124 189.973,139.29 188.5,140C 189.066,140.995 189.733,141.828 190.5,142.5C 185.202,153.443 178.202,163.11 169.5,171.5C 169.631,170.761 169.464,170.094 169,169.5C 122.667,170.833 76.3333,170.833 30,169.5C 29.5357,170.094 29.369,170.761 29.5,171.5C 20.5331,162.908 13.5331,152.908 8.5,141.5C 8.5,139.833 8.5,138.167 8.5,136.5C 31.0752,136.173 53.5752,136.506 76,137.5C 76.2784,136.584 76.7784,135.918 77.5,135.5C 78.5375,136.93 79.2041,138.597 79.5,140.5C 80.6591,142.377 82.3258,142.877 84.5,142C 89.1397,136.514 94.4731,132.014 100.5,128.5 Z"/></g>
<g><path style="opacity:1" fill="#1f95d3" d="M 169.5,171.5 C 154.037,186.398 135.704,195.732 114.5,199.5C 104.5,199.5 94.5,199.5 84.5,199.5C 63.2964,195.732 44.9631,186.398 29.5,171.5C 29.369,170.761 29.5357,170.094 30,169.5C 76.3333,170.833 122.667,170.833 169,169.5C 169.464,170.094 169.631,170.761 169.5,171.5 Z"/></g>
</svg>
