<?xml version="1.0" encoding="UTF-8"?>
<!DOCTYPE svg PUBLIC "-//W3C//DTD SVG 1.1//EN" "http://www.w3.org/Graphics/SVG/1.1/DTD/svg11.dtd">
<svg xmlns="http://www.w3.org/2000/svg" version="1.1" width="512px" height="512px" style="shape-rendering:geometricPrecision; text-rendering:geometricPrecision; image-rendering:optimizeQuality; fill-rule:evenodd; clip-rule:evenodd" xmlns:xlink="http://www.w3.org/1999/xlink">
<g><path style="opacity:0.998" fill="#03c001" d="M 233.5,-0.5 C 248.167,-0.5 262.833,-0.5 277.5,-0.5C 373.926,11.1207 444.093,60.1207 488,146.5C 500.701,174.312 508.534,203.312 511.5,233.5C 511.5,248.167 511.5,262.833 511.5,277.5C 499.879,373.926 450.879,444.093 364.5,488C 336.688,500.701 307.688,508.534 277.5,511.5C 262.833,511.5 248.167,511.5 233.5,511.5C 136.34,499.484 65.8403,449.817 22,362.5C 9.93784,335.244 2.43784,306.911 -0.5,277.5C -0.5,262.833 -0.5,248.167 -0.5,233.5C 8.60893,152.613 46.2756,88.7801 112.5,42C 149.423,17.9708 189.757,3.80413 233.5,-0.5 Z"/></g>
<g><path style="opacity:1" fill="#fbfefb" d="M 263.5,87.5 C 277.033,88.2 290.366,90.2 303.5,93.5C 314.24,97.4192 324.907,101.753 335.5,106.5C 359.16,119.648 378.993,137.315 395,159.5C 396.761,162.411 398.261,165.411 399.5,168.5C 399.928,171.36 400.928,174.026 402.5,176.5C 401.417,178.875 401.417,181.208 402.5,183.5C 403.258,182.189 404.258,181.689 405.5,182C 407.053,184.655 408.22,187.488 409,190.5C 410.039,191.71 411.206,192.71 412.5,193.5C 416.417,201.24 418.75,209.574 419.5,218.5C 422.292,236.661 423.292,254.994 422.5,273.5C 422.5,276.167 422.5,278.833 422.5,281.5C 420.311,291.091 417.978,300.758 415.5,310.5C 411.463,318.253 407.796,326.253 404.5,334.5C 367.537,396.668 312.537,426.334 239.5,423.5C 231.314,421.709 222.98,420.043 214.5,418.5C 201.843,414.851 189.509,410.018 177.5,404C 169.819,404.258 162.486,405.758 155.5,408.5C 139.903,411.898 124.57,415.898 109.5,420.5C 102.248,422.48 94.9144,424.146 87.5,425.5C 87.5838,422.673 88.2504,420.006 89.5,417.5C 90.6566,413.207 91.6566,408.873 92.5,404.5C 94.554,401.992 95.554,398.992 95.5,395.5C 95.5,394.167 95.5,392.833 95.5,391.5C 98.29,382.063 101.29,372.73 104.5,363.5C 105.973,361.417 107.14,359.084 108,356.5C 109.574,351.616 110.407,346.616 110.5,341.5C 110.657,340.127 110.49,338.793 110,337.5C 105.927,330.687 102.427,323.687 99.5,316.5C 99.5,316.167 99.5,315.833 99.5,315.5C 94.772,303.588 91.772,291.255 90.5,278.5C 89.1133,257.338 90.1133,236.338 93.5,215.5C 93.5,215.167 93.5,214.833 93.5,214.5C 94.4959,214.586 95.3292,214.252 96,213.5C 97.572,206.877 99.2386,200.21 101,193.5C 102.284,194.572 102.617,195.905 102,197.5C 103.815,195.173 103.982,192.673 102.5,190C 104.013,188.121 104.679,185.954 104.5,183.5C 117.495,155.999 136.495,133.499 161.5,116C 166.203,112.648 171.203,109.815 176.5,107.5C 180.856,107.152 184.523,105.486 187.5,102.5C 191.252,99.9571 195.252,97.9571 199.5,96.5C 202.112,95.6295 204.779,94.9628 207.5,94.5C 211.794,95.1927 215.461,94.1927 218.5,91.5C 218.833,91.5 219.167,91.5 219.5,91.5C 224.536,91.4122 229.536,90.9122 234.5,90C 235.056,89.6174 235.389,89.1174 235.5,88.5C 244.652,87.5064 253.985,87.1731 263.5,87.5 Z"/></g>
<g><path style="opacity:1" fill="#dafdd2" d="M 235.5,88.5 C 235.389,89.1174 235.056,89.6174 234.5,90C 229.536,90.9122 224.536,91.4122 219.5,91.5C 224.529,89.5853 229.863,88.5853 235.5,88.5 Z"/></g>
<g><path style="opacity:1" fill="#33be2f" d="M 263.5,87.5 C 253.985,87.1731 244.652,87.5064 235.5,88.5C 229.863,88.5853 224.529,89.5853 219.5,91.5C 219.167,91.5 218.833,91.5 218.5,91.5C 214.573,91.9257 210.907,92.9257 207.5,94.5C 204.779,94.9628 202.112,95.6295 199.5,96.5C 200.348,94.9069 201.681,93.7403 203.5,93C 210.926,91.7104 217.426,89.877 223,87.5C 236.535,86.4286 250.035,86.4286 263.5,87.5 Z"/></g>
<g><path style="opacity:1" fill="#d9fcd9" d="M 218.5,91.5 C 215.461,94.1927 211.794,95.1927 207.5,94.5C 210.907,92.9257 214.573,91.9257 218.5,91.5 Z"/></g>
<g><path style="opacity:1" fill="#34bd2e" d="M 303.5,93.5 C 315.871,94.2287 326.538,98.562 335.5,106.5C 324.907,101.753 314.24,97.4192 303.5,93.5 Z"/></g>
<g><path style="opacity:1" fill="#dafedf" d="M 187.5,102.5 C 184.523,105.486 180.856,107.152 176.5,107.5C 179.74,105.049 183.407,103.382 187.5,102.5 Z"/></g>
<g><path style="opacity:1" fill="#e4ffde" d="M 279.5,116.5 C 264.163,115.208 248.83,115.208 233.5,116.5C 233.611,115.883 233.944,115.383 234.5,115C 248.833,114.333 263.167,114.333 277.5,115C 278.416,115.278 279.082,115.778 279.5,116.5 Z"/></g>
<g><path style="opacity:1" fill="#1ebc18" d="M 279.5,116.5 C 282.167,117.5 284.833,118.5 287.5,119.5C 292.291,119.894 296.958,120.894 301.5,122.5C 302.5,123.167 303.5,123.833 304.5,124.5C 287.479,123.922 270.479,123.922 253.5,124.5C 241.841,123.811 230.174,123.145 218.5,122.5C 214.31,124.119 209.977,125.119 205.5,125.5C 214.352,121.281 223.686,118.281 233.5,116.5C 248.83,115.208 264.163,115.208 279.5,116.5 Z"/></g>
<g><path style="opacity:1" fill="#04c201" d="M 287.5,119.5 C 288.278,120.156 288.944,120.989 289.5,122C 289.167,122.5 288.833,123 288.5,123.5C 266.66,121.691 244.66,120.858 222.5,121C 236.571,116.657 250.904,115.49 265.5,117.5C 266.559,118.696 267.893,119.363 269.5,119.5C 275.487,118.431 281.487,118.431 287.5,119.5 Z"/></g>
<g><path style="opacity:1" fill="#05c102" d="M 304.5,124.5 C 311.386,126.609 318.052,129.276 324.5,132.5C 342.317,142.98 357.317,156.647 369.5,173.5C 370.343,176.516 371.843,179.183 374,181.5C 374.333,184.833 374.667,188.167 375,191.5C 375.442,189.321 376.442,188.655 378,189.5C 380.281,194.401 382.781,199.068 385.5,203.5C 389.982,211.084 392.649,219.417 393.5,228.5C 394.5,243.487 394.666,258.487 394,273.5C 390.522,285.766 387.355,298.099 384.5,310.5C 383.89,311.391 383.557,312.391 383.5,313.5C 372.219,336.723 356.219,356.056 335.5,371.5C 329.938,374.128 324.604,377.128 319.5,380.5C 307.678,386.107 295.345,390.107 282.5,392.5C 270.176,393.384 257.843,393.551 245.5,393C 237.634,391.239 229.634,390.239 221.5,390C 215.063,386.136 208.063,383.97 200.5,383.5C 194.046,380.773 187.712,377.773 181.5,374.5C 173.979,374.135 166.646,375.469 159.5,378.5C 151.5,380.167 143.5,381.833 135.5,383.5C 133.051,384.057 130.718,384.057 128.5,383.5C 130.41,378.973 131.91,374.307 133,369.5C 135.336,368.708 135.836,367.375 134.5,365.5C 137.501,358.835 138.834,351.835 138.5,344.5C 139.652,340.919 140.152,337.252 140,333.5C 134.023,323.878 128.856,313.878 124.5,303.5C 124.066,299.052 122.732,295.052 120.5,291.5C 120.5,290.167 120.5,288.833 120.5,287.5C 118.506,269.584 118.006,251.584 119,233.5C 119.794,230.529 120.461,227.529 121,224.5C 121.92,224.07 122.753,223.736 123.5,223.5C 122.937,222.061 122.603,220.561 122.5,219C 124.036,215.02 125.036,210.853 125.5,206.5C 136.793,175.874 156.46,152.207 184.5,135.5C 191.876,132.979 198.876,129.646 205.5,125.5C 209.977,125.119 214.31,124.119 218.5,122.5C 230.174,123.145 241.841,123.811 253.5,124.5C 270.479,123.922 287.479,123.922 304.5,124.5 Z"/></g>
<g><path style="opacity:1" fill="#e5fde2" d="M 301.5,122.5 C 308.595,124.444 315.595,126.611 322.5,129C 323.823,129.816 324.489,130.983 324.5,132.5C 318.052,129.276 311.386,126.609 304.5,124.5C 303.5,123.833 302.5,123.167 301.5,122.5 Z"/></g>
<g><path style="opacity:1" fill="#39bb2e" d="M 205.5,125.5 C 198.876,129.646 191.876,132.979 184.5,135.5C 190.789,130.857 197.789,127.524 205.5,125.5 Z"/></g>
<g><path style="opacity:1" fill="#2bb926" d="M 218.5,194.5 C 217.687,192.739 216.687,191.072 215.5,189.5C 212.625,177.856 205.291,174.023 193.5,178C 192.263,178.232 191.263,178.732 190.5,179.5C 190.167,179.5 189.833,179.5 189.5,179.5C 189.414,178.504 189.748,177.671 190.5,177C 196.416,176.81 202.249,176.31 208,175.5C 209.816,176.329 211.649,177.163 213.5,178C 215.467,183.402 217.134,188.902 218.5,194.5 Z"/></g>
<g><path style="opacity:1" fill="#fcfefc" d="M 215.5,189.5 C 214.742,194.238 216.075,198.238 219.5,201.5C 220.308,203.423 220.808,205.423 221,207.5C 221.278,206.584 221.778,205.918 222.5,205.5C 226.345,211.217 227.845,217.551 227,224.5C 222.128,230.418 217.628,236.585 213.5,243C 226.937,269.938 247.937,288.105 276.5,297.5C 284.125,293.374 289.958,287.374 294,279.5C 295.439,277.552 297.272,276.219 299.5,275.5C 313.923,280.962 327.757,287.629 341,295.5C 342.058,316.622 332.225,329.622 311.5,334.5C 300.641,335.143 289.974,334.143 279.5,331.5C 277.21,328.78 274.21,327.28 270.5,327C 269.663,325.989 269.33,324.822 269.5,323.5C 263.483,324.004 257.816,323.004 252.5,320.5C 235.861,311.715 221.028,300.382 208,286.5C 200.953,278.455 194.287,270.122 188,261.5C 183.124,255.082 179.291,248.082 176.5,240.5C 175.716,235.786 174.382,231.452 172.5,227.5C 172.06,218.051 172.727,208.718 174.5,199.5C 174.5,198.833 174.833,198.5 175.5,198.5C 177.019,195.979 178.686,193.479 180.5,191C 182.419,189.066 183.919,189.233 185,191.5C 185.334,189.153 185.167,186.819 184.5,184.5C 185.833,182.5 187.5,180.833 189.5,179.5C 189.833,179.5 190.167,179.5 190.5,179.5C 196.145,178.613 201.812,178.446 207.5,179C 210.969,181.974 213.636,185.474 215.5,189.5 Z"/></g>
<g><path style="opacity:1" fill="#e0fedf" d="M 215.5,189.5 C 213.636,185.474 210.969,181.974 207.5,179C 201.812,178.446 196.145,178.613 190.5,179.5C 191.263,178.732 192.263,178.232 193.5,178C 205.291,174.023 212.625,177.856 215.5,189.5 Z"/></g>
<g><path style="opacity:1" fill="#ebfee5" d="M 399.5,168.5 C 405.15,176.133 409.484,184.467 412.5,193.5C 411.206,192.71 410.039,191.71 409,190.5C 408.22,187.488 407.053,184.655 405.5,182C 404.258,181.689 403.258,182.189 402.5,183.5C 401.417,181.208 401.417,178.875 402.5,176.5C 400.928,174.026 399.928,171.36 399.5,168.5 Z"/></g>
<g><path style="opacity:1" fill="#ebfee3" d="M 184.5,184.5 C 185.167,186.819 185.334,189.153 185,191.5C 183.919,189.233 182.419,189.066 180.5,191C 178.686,193.479 177.019,195.979 175.5,198.5C 175.94,195.62 176.94,192.954 178.5,190.5C 180.139,188.194 182.139,186.194 184.5,184.5 Z"/></g>
<g><path style="opacity:1" fill="#35bb30" d="M 369.5,173.5 C 376.923,182.344 382.256,192.344 385.5,203.5C 382.781,199.068 380.281,194.401 378,189.5C 376.442,188.655 375.442,189.321 375,191.5C 374.667,188.167 374.333,184.833 374,181.5C 371.843,179.183 370.343,176.516 369.5,173.5 Z"/></g>
<g><path style="opacity:1" fill="#e3fddf" d="M 215.5,189.5 C 216.687,191.072 217.687,192.739 218.5,194.5C 219.833,198.167 221.167,201.833 222.5,205.5C 221.778,205.918 221.278,206.584 221,207.5C 220.808,205.423 220.308,203.423 219.5,201.5C 216.075,198.238 214.742,194.238 215.5,189.5 Z"/></g>
<g><path style="opacity:1" fill="#eafde4" d="M 104.5,183.5 C 104.679,185.954 104.013,188.121 102.5,190C 103.982,192.673 103.815,195.173 102,197.5C 102.617,195.905 102.284,194.572 101,193.5C 99.2386,200.21 97.572,206.877 96,213.5C 95.3292,214.252 94.4959,214.586 93.5,214.5C 95.4999,203.456 99.1666,193.123 104.5,183.5 Z"/></g>
<g><path style="opacity:1" fill="#dbfdd9" d="M 174.5,199.5 C 172.727,208.718 172.06,218.051 172.5,227.5C 171.345,220.345 171.178,213.012 172,205.5C 172.566,203.277 173.4,201.277 174.5,199.5 Z"/></g>
<g><path style="opacity:1" fill="#3fc335" d="M 178.5,190.5 C 176.94,192.954 175.94,195.62 175.5,198.5C 174.833,198.5 174.5,198.833 174.5,199.5C 173.4,201.277 172.566,203.277 172,205.5C 171.178,213.012 171.345,220.345 172.5,227.5C 172.851,230.903 173.518,234.237 174.5,237.5C 173.21,236.942 172.377,235.942 172,234.5C 171.667,234.833 171.333,235.167 171,235.5C 170.333,225.167 170.333,214.833 171,204.5C 172.051,199.52 173.551,194.853 175.5,190.5C 176.5,190.5 177.5,190.5 178.5,190.5 Z"/></g>
<g><path style="opacity:1" fill="#dcfeda" d="M 172.5,227.5 C 174.382,231.452 175.716,235.786 176.5,240.5C 175.833,239.5 175.167,238.5 174.5,237.5C 173.518,234.237 172.851,230.903 172.5,227.5 Z"/></g>
<g><path style="opacity:1" fill="#39bd31" d="M 92.5,217.5 C 88.0925,237.799 87.4259,258.133 90.5,278.5C 91.772,291.255 94.772,303.588 99.5,315.5C 97.917,314.064 96.417,312.398 95,310.5C 94.6667,307.833 94.3333,305.167 94,302.5C 91.7731,296.303 89.6065,290.136 87.5,284C 88.8174,279.825 88.6507,275.658 87,271.5C 85.3193,253.51 86.6526,235.843 91,218.5C 91.3826,217.944 91.8826,217.611 92.5,217.5 Z"/></g>
<g><path style="opacity:1" fill="#d8fdd3" d="M 419.5,218.5 C 421.478,225.446 423.144,232.446 424.5,239.5C 424.921,251.052 424.254,262.385 422.5,273.5C 423.292,254.994 422.292,236.661 419.5,218.5 Z"/></g>
<g><path style="opacity:1" fill="#45bf3c" d="M 393.5,228.5 C 395.477,236.57 396.477,244.904 396.5,253.5C 396.106,260.501 395.773,267.501 395.5,274.5C 393.317,286.856 389.651,298.856 384.5,310.5C 387.355,298.099 390.522,285.766 394,273.5C 394.666,258.487 394.5,243.487 393.5,228.5 Z"/></g>
<g><path style="opacity:1" fill="#e0fee0" d="M 93.5,215.5 C 90.1133,236.338 89.1133,257.338 90.5,278.5C 87.4259,258.133 88.0925,237.799 92.5,217.5C 92.3284,216.508 92.6618,215.842 93.5,215.5 Z"/></g>
<g><path style="opacity:1" fill="#41be3a" d="M 125.5,206.5 C 125.036,210.853 124.036,215.02 122.5,219C 122.603,220.561 122.937,222.061 123.5,223.5C 122.753,223.736 121.92,224.07 121,224.5C 120.461,227.529 119.794,230.529 119,233.5C 118.006,251.584 118.506,269.584 120.5,287.5C 118.812,282.414 117.646,277.08 117,271.5C 115.651,254.669 116.651,238.002 120,221.5C 121.171,216.143 123.004,211.143 125.5,206.5 Z"/></g>
<g><path style="opacity:1" fill="#24b821" d="M 424.5,239.5 C 425.391,240.261 426.058,241.261 426.5,242.5C 425.087,250.56 425.42,258.56 427.5,266.5C 425.535,271.631 423.868,276.631 422.5,281.5C 422.5,278.833 422.5,276.167 422.5,273.5C 424.254,262.385 424.921,251.052 424.5,239.5 Z"/></g>
<g><path style="opacity:1" fill="#ebfce9" d="M 395.5,274.5 C 395.38,276.734 395.713,278.901 396.5,281C 395.544,282.365 394.878,283.865 394.5,285.5C 394.474,289.374 394.641,293.374 395,297.5C 394.667,298.167 394.333,298.833 394,299.5C 393.667,296.833 393.333,294.167 393,291.5C 392.667,294.833 392.333,298.167 392,301.5C 391.667,301.167 391.333,300.833 391,300.5C 387.951,304.647 386.284,309.313 386,314.5C 385.329,313.748 384.496,313.414 383.5,313.5C 383.557,312.391 383.89,311.391 384.5,310.5C 389.651,298.856 393.317,286.856 395.5,274.5 Z"/></g>
<g><path style="opacity:1" fill="#d8fcd7" d="M 120.5,291.5 C 122.732,295.052 124.066,299.052 124.5,303.5C 121.073,300.434 119.74,296.434 120.5,291.5 Z"/></g>
<g><path style="opacity:1" fill="#30be28" d="M 422.5,281.5 C 422.722,287.109 422.056,292.609 420.5,298C 421.426,301.139 421.592,304.306 421,307.5C 420.085,306.672 419.419,305.672 419,304.5C 418.124,306.758 416.957,308.758 415.5,310.5C 417.978,300.758 420.311,291.091 422.5,281.5 Z"/></g>
<g><path style="opacity:1" fill="#32c02c" d="M 415.5,310.5 C 415.666,314.846 415.499,319.179 415,323.5C 414.667,323.833 414.333,324.167 414,324.5C 413.667,323.167 413.333,321.833 413,320.5C 410.9,324.368 409.066,328.368 407.5,332.5C 406.735,333.612 405.735,334.279 404.5,334.5C 407.796,326.253 411.463,318.253 415.5,310.5 Z"/></g>
<g><path style="opacity:1" fill="#e6fde1" d="M 252.5,320.5 C 257.816,323.004 263.483,324.004 269.5,323.5C 269.33,324.822 269.663,325.989 270.5,327C 274.21,327.28 277.21,328.78 279.5,331.5C 275.447,330.65 271.447,329.484 267.5,328C 262.16,325.997 257.16,323.497 252.5,320.5 Z"/></g>
<g><path style="opacity:1" fill="#e0fde0" d="M 279.5,331.5 C 289.974,334.143 300.641,335.143 311.5,334.5C 304.345,335.655 297.012,335.822 289.5,335C 285.89,334.262 282.557,333.095 279.5,331.5 Z"/></g>
<g><path style="opacity:1" fill="#26bf1f" d="M 99.5,316.5 C 102.427,323.687 105.927,330.687 110,337.5C 110.49,338.793 110.657,340.127 110.5,341.5C 108.207,348.665 106.207,355.998 104.5,363.5C 101.29,372.73 98.29,382.063 95.5,391.5C 96.2061,386.686 96.8728,381.853 97.5,377C 99.5262,374.253 100.693,371.086 101,367.5C 101.447,353.504 101.613,339.67 101.5,326C 100.434,322.906 99.7678,319.74 99.5,316.5 Z"/></g>
<g><path style="opacity:1" fill="#e5fee4" d="M 110.5,341.5 C 110.407,346.616 109.574,351.616 108,356.5C 107.14,359.084 105.973,361.417 104.5,363.5C 106.207,355.998 108.207,348.665 110.5,341.5 Z"/></g>
<g><path style="opacity:1" fill="#36bd2f" d="M 138.5,344.5 C 138.834,351.835 137.501,358.835 134.5,365.5C 135.836,367.375 135.336,368.708 133,369.5C 131.91,374.307 130.41,378.973 128.5,383.5C 130.718,384.057 133.051,384.057 135.5,383.5C 135.5,383.833 135.5,384.167 135.5,384.5C 132.946,385.388 130.279,385.721 127.5,385.5C 130.72,371.611 134.387,357.944 138.5,344.5 Z"/></g>
<g><path style="opacity:1" fill="#e5fee5" d="M 335.5,371.5 C 333.266,373.89 330.599,375.724 327.5,377C 326.228,378.307 325.228,379.807 324.5,381.5C 322.929,380.691 321.262,380.357 319.5,380.5C 324.604,377.128 329.938,374.128 335.5,371.5 Z"/></g>
<g><path style="opacity:1" fill="#dbfed7" d="M 181.5,374.5 C 174.201,376.051 166.868,377.385 159.5,378.5C 166.646,375.469 173.979,374.135 181.5,374.5 Z"/></g>
<g><path style="opacity:1" fill="#e0fcdf" d="M 159.5,378.5 C 155.389,380.434 151.055,382.267 146.5,384C 142.848,384.499 139.182,384.665 135.5,384.5C 135.5,384.167 135.5,383.833 135.5,383.5C 143.5,381.833 151.5,380.167 159.5,378.5 Z"/></g>
<g><path style="opacity:1" fill="#42c23a" d="M 200.5,383.5 C 208.063,383.97 215.063,386.136 221.5,390C 229.634,390.239 237.634,391.239 245.5,393C 257.843,393.551 270.176,393.384 282.5,392.5C 254.219,398.284 226.886,395.284 200.5,383.5 Z"/></g>
<g><path style="opacity:1" fill="#bdf9b6" d="M 95.5,395.5 C 95.554,398.992 94.554,401.992 92.5,404.5C 93.0541,401.254 94.0541,398.254 95.5,395.5 Z"/></g>
<g><path style="opacity:1" fill="#3cbe36" d="M 155.5,408.5 C 151.05,410.96 146.383,413.127 141.5,415C 133.484,415.78 125.817,417.447 118.5,420C 115.518,420.498 112.518,420.665 109.5,420.5C 124.57,415.898 139.903,411.898 155.5,408.5 Z"/></g>
<g><path style="opacity:1" fill="#35b62e" d="M 214.5,418.5 C 222.98,420.043 231.314,421.709 239.5,423.5C 230.592,423.413 222.259,421.746 214.5,418.5 Z"/></g>
<g><path style="opacity:1" fill="#2fbe29" d="M 89.5,417.5 C 88.2504,420.006 87.5838,422.673 87.5,425.5C 94.9144,424.146 102.248,422.48 109.5,420.5C 107.786,421.738 105.786,422.405 103.5,422.5C 103.67,423.822 103.337,424.989 102.5,426C 97.5037,427.202 92.5037,427.536 87.5,427C 86.3977,424.599 86.231,422.099 87,419.5C 87.7083,418.619 88.5416,417.953 89.5,417.5 Z"/></g>
</svg>
